<svg width="54" height="56" viewBox="0 0 54 56" fill="none" xmlns="http://www.w3.org/2000/svg">
<path opacity="0.1" d="M52.883 2.23741L52.9414 1.78442L52.4955 1.68533C46.6635 0.38931 41.7839 1.54315 37.9377 5.2017C34.0974 8.85472 32.2218 14.3432 32.2218 21.5674V54.7949V55.2949H32.7218H52.3871H52.8871V54.7949V28.3485V27.8485H52.3871H42.2912C42.1476 23.3711 42.4232 19.3666 43.113 15.8314L43.1134 15.8292C43.4527 14.0481 44.2855 12.8037 45.59 12.0291C46.9147 11.2425 48.7879 10.9037 51.2665 11.0807L51.7376 11.1144L51.798 10.646L52.883 2.23741ZM22.0967 2.23741L22.1551 1.78442L21.7093 1.68533C15.8772 0.38931 10.9976 1.54315 7.15146 5.2017C3.31112 8.85472 1.43555 14.3432 1.43555 21.5674V54.7949V55.2949H1.93555H21.6008H22.1008V54.7949V28.3485V27.8485H21.6008H11.5049C11.3613 23.3711 11.6369 19.3666 12.3267 15.8314L12.3272 15.8292C12.6664 14.0481 13.4992 12.8037 14.8037 12.0291C16.1284 11.2425 18.0016 10.9037 20.4802 11.0807L20.9513 11.1144L21.0117 10.646L22.0967 2.23741Z" stroke="white"/>
</svg>
