<svg width="1799" height="1580" viewBox="0 0 1799 1580" fill="none" xmlns="http://www.w3.org/2000/svg">
<path opacity="0.1" d="M143.229 1146.77V1147.77H144.229V1146.77H143.229ZM143.229 1111.36H144.229V1110.36H143.229V1111.36ZM20.8333 1111.36V1110.36H19.8333V1111.36H20.8333ZM20.8333 1298.86H19.8333V1299.86H20.8333V1298.86ZM143.229 1298.86V1299.86H144.229V1298.86H143.229ZM143.229 1263.44H144.229V1262.44H143.229V1263.44ZM56.25 1263.44H55.25V1264.44H56.25V1263.44ZM56.25 1222.82V1221.82H55.25V1222.82H56.25ZM127.604 1222.82V1223.82H128.604V1222.82H127.604ZM127.604 1187.4H128.604V1186.4H127.604V1187.4ZM56.25 1187.4H55.25V1188.4H56.25V1187.4ZM56.25 1146.77V1145.77H55.25V1146.77H56.25ZM144.229 1146.77V1111.36H142.229V1146.77H144.229ZM143.229 1110.36H20.8333V1112.36H143.229V1110.36ZM19.8333 1111.36V1298.86H21.8333V1111.36H19.8333ZM20.8333 1299.86H143.229V1297.86H20.8333V1299.86ZM144.229 1298.86V1263.44H142.229V1298.86H144.229ZM143.229 1262.44H56.25V1264.44H143.229V1262.44ZM57.25 1263.44V1222.82H55.25V1263.44H57.25ZM56.25 1223.82H127.604V1221.82H56.25V1223.82ZM128.604 1222.82V1187.4H126.604V1222.82H128.604ZM127.604 1186.4H56.25V1188.4H127.604V1186.4ZM57.25 1187.4V1146.77H55.25V1187.4H57.25ZM56.25 1147.77H143.229V1145.77H56.25V1147.77ZM299.04 1158.23L299.853 1158.81L300.983 1157.23H299.04V1158.23ZM258.936 1158.23V1157.23H258.4L258.104 1157.68L258.936 1158.23ZM230.811 1200.42L229.979 1200.97L230.811 1202.22L231.643 1200.97L230.811 1200.42ZM202.686 1158.23L203.518 1157.68L203.221 1157.23H202.686V1158.23ZM162.581 1158.23V1157.23H160.638L161.768 1158.81L162.581 1158.23ZM212.061 1227.5L212.877 1228.08L213.288 1227.5L212.874 1226.92L212.061 1227.5ZM161.54 1298.86L160.724 1298.28L159.606 1299.86H161.54V1298.86ZM201.904 1298.86V1299.86H202.442L202.739 1299.41L201.904 1298.86ZM230.811 1255.11L231.645 1254.56L230.811 1253.29L229.976 1254.56L230.811 1255.11ZM259.717 1298.86L258.882 1299.41L259.179 1299.86H259.717V1298.86ZM300.342 1298.86V1299.86H302.281L301.157 1298.28L300.342 1298.86ZM249.561 1227.5L248.747 1226.92L248.332 1227.5L248.746 1228.08L249.561 1227.5ZM299.04 1157.23H258.936V1159.23H299.04V1157.23ZM258.104 1157.68L229.979 1199.87L231.643 1200.97L259.768 1158.79L258.104 1157.68ZM231.643 1199.87L203.518 1157.68L201.853 1158.79L229.979 1200.97L231.643 1199.87ZM202.686 1157.23H162.581V1159.23H202.686V1157.23ZM161.768 1158.81L211.247 1228.08L212.874 1226.92L163.395 1157.65L161.768 1158.81ZM211.244 1226.93L160.724 1298.28L162.356 1299.44L212.877 1228.08L211.244 1226.93ZM161.54 1299.86H201.904V1297.86H161.54V1299.86ZM202.739 1299.41L231.645 1255.66L229.976 1254.56L201.07 1298.31L202.739 1299.41ZM229.976 1255.66L258.882 1299.41L260.551 1298.31L231.645 1254.56L229.976 1255.66ZM259.717 1299.86H300.342V1297.86H259.717V1299.86ZM301.157 1298.28L250.375 1226.92L248.746 1228.08L299.527 1299.44L301.157 1298.28ZM250.374 1228.08L299.853 1158.81L298.226 1157.65L248.747 1226.92L250.374 1228.08ZM441.52 1176.72L442.304 1176.1L442.298 1176.09L441.52 1176.72ZM352.458 1167.09H351.458V1169.1L353.061 1167.88L352.458 1167.09ZM352.458 1158.23H353.458V1157.23H352.458V1158.23ZM321.208 1158.23V1157.23H320.208V1158.23H321.208ZM321.208 1361.36H320.208V1362.36H321.208V1361.36ZM356.885 1361.36V1362.36H357.885V1361.36H356.885ZM356.885 1293.39L357.409 1292.54L355.885 1291.6V1293.39H356.885ZM441.52 1280.37L440.747 1279.73L440.739 1279.74L441.52 1280.37ZM413.395 1258.75L412.568 1258.19L412.564 1258.2L412.559 1258.2L413.395 1258.75ZM362.354 1261.36L361.609 1262.03L361.614 1262.03L361.619 1262.04L362.354 1261.36ZM362.354 1195.73L363.109 1196.39L363.117 1196.38L362.354 1195.73ZM412.874 1198.34L412.039 1198.89L412.043 1198.89L412.047 1198.9L412.874 1198.34ZM442.298 1176.09C430.097 1160.97 411.037 1153.33 391.26 1153.33V1155.33C410.545 1155.33 428.985 1162.78 440.742 1177.35L442.298 1176.09ZM391.26 1153.33C376.724 1153.33 362.709 1158.08 351.855 1166.29L353.061 1167.88C363.56 1159.95 377.15 1155.33 391.26 1155.33V1153.33ZM353.458 1167.09V1158.23H351.458V1167.09H353.458ZM352.458 1157.23H321.208V1159.23H352.458V1157.23ZM320.208 1158.23V1361.36H322.208V1158.23H320.208ZM321.208 1362.36H356.885V1360.36H321.208V1362.36ZM357.885 1361.36V1293.39H355.885V1361.36H357.885ZM356.361 1294.24C366.702 1300.6 379.391 1303.76 393.083 1303.76V1301.76C379.691 1301.76 367.38 1298.67 357.409 1292.54L356.361 1294.24ZM393.083 1303.76C411.845 1303.76 430.634 1295.58 442.301 1280.99L440.739 1279.74C429.49 1293.81 411.3 1301.76 393.083 1301.76V1303.76ZM442.293 1281C454.464 1266.19 458.926 1247.97 458.926 1228.55H456.926C456.926 1247.67 452.535 1265.38 440.747 1279.73L442.293 1281ZM458.926 1228.55C458.926 1208.84 453.409 1190.12 442.304 1176.1L440.736 1177.34C451.506 1190.93 456.926 1209.19 456.926 1228.55H458.926ZM412.559 1258.2C406.817 1266.94 397.045 1270.25 387.354 1270.25V1272.25C397.454 1272.25 407.994 1268.79 414.231 1259.3L412.559 1258.2ZM387.354 1270.25C377.411 1270.25 369.109 1267.2 363.088 1260.68L361.619 1262.04C368.098 1269.06 376.984 1272.25 387.354 1272.25V1270.25ZM363.098 1260.69C356.564 1253.4 353.458 1241.19 353.458 1228.55H351.458C351.458 1241.42 354.601 1254.21 361.609 1262.03L363.098 1260.69ZM353.458 1228.55C353.458 1215.91 356.559 1203.95 363.109 1196.39L361.598 1195.08C354.606 1203.14 351.458 1215.66 351.458 1228.55H353.458ZM363.117 1196.38C368.613 1189.88 376.636 1186.84 386.051 1186.84V1184.84C376.196 1184.84 367.553 1188.04 361.59 1195.09L363.117 1196.38ZM386.051 1186.84C397.561 1186.84 406.294 1190.14 412.039 1198.89L413.71 1197.79C407.475 1188.3 397.979 1184.84 386.051 1184.84V1186.84ZM412.047 1198.9C416.842 1205.97 419.426 1216.68 419.426 1228.55H421.426C421.426 1216.45 418.802 1205.29 413.702 1197.78L412.047 1198.9ZM419.426 1228.55C419.426 1240.45 417.349 1251.15 412.568 1258.19L414.223 1259.31C419.337 1251.78 421.426 1240.6 421.426 1228.55H419.426ZM486.491 1298.86H485.491V1299.86H486.491V1298.86ZM486.491 1107.45V1106.45H485.491V1107.45H486.491ZM521.908 1107.45H522.908V1106.45H521.908V1107.45ZM521.908 1298.86V1299.86H522.908V1298.86H521.908ZM487.491 1298.86V1107.45H485.491V1298.86H487.491ZM486.491 1108.45H521.908V1106.45H486.491V1108.45ZM520.908 1107.45V1298.86H522.908V1107.45H520.908ZM521.908 1297.86H486.491V1299.86H521.908V1297.86ZM675.456 1279.33L676.218 1279.97L676.226 1279.96L676.234 1279.95L675.456 1279.33ZM675.456 1177.76L674.688 1178.4L674.691 1178.41L675.456 1177.76ZM567.643 1177.76L566.88 1177.12L566.873 1177.13L567.643 1177.76ZM567.643 1279.33L566.871 1279.96L566.875 1279.97L566.88 1279.97L567.643 1279.33ZM647.331 1257.71L646.537 1257.1L646.531 1257.11L646.524 1257.12L647.331 1257.71ZM595.768 1257.71L596.575 1257.12L596.568 1257.11L596.562 1257.1L595.768 1257.71ZM595.768 1199.12L596.562 1199.73L596.568 1199.72L596.575 1199.71L595.768 1199.12ZM647.331 1199.12L646.524 1199.71L646.531 1199.72L646.537 1199.73L647.331 1199.12ZM621.549 1303.76C642.89 1303.76 662.718 1295.86 676.218 1279.97L674.694 1278.68C661.631 1294.05 642.397 1301.76 621.549 1301.76V1303.76ZM676.234 1279.95C688.364 1264.92 693.904 1248.81 693.904 1228.55H691.904C691.904 1248.38 686.506 1264.04 674.678 1278.7L676.234 1279.95ZM693.904 1228.55C693.904 1209.34 688.899 1192.18 676.221 1177.12L674.691 1178.41C687.012 1193.04 691.904 1209.73 691.904 1228.55H693.904ZM676.224 1177.12C662.979 1161.23 642.621 1153.33 621.549 1153.33V1155.33C642.145 1155.33 661.891 1163.05 674.688 1178.4L676.224 1177.12ZM621.549 1153.33C600.732 1153.33 580.121 1161.49 566.88 1177.12L568.406 1178.41C581.207 1163.3 601.221 1155.33 621.549 1155.33V1153.33ZM566.873 1177.13C555.511 1190.87 549.456 1208.55 549.456 1228.55H551.456C551.456 1208.96 557.38 1191.74 568.414 1178.4L566.873 1177.13ZM549.456 1228.55C549.456 1248.01 554.723 1265.17 566.871 1279.96L568.416 1278.69C556.605 1264.31 551.456 1247.62 551.456 1228.55H549.456ZM566.88 1279.97C580.12 1295.6 600.47 1303.76 621.549 1303.76V1301.76C600.963 1301.76 581.208 1293.79 568.406 1278.68L566.88 1279.97ZM646.524 1257.12C641.019 1264.63 631.712 1268.69 621.549 1268.69V1270.69C632.22 1270.69 642.185 1266.42 648.137 1258.3L646.524 1257.12ZM621.549 1268.69C611.387 1268.69 602.08 1264.63 596.575 1257.12L594.962 1258.3C600.914 1266.42 610.878 1270.69 621.549 1270.69V1268.69ZM596.562 1257.1C590.773 1249.55 588.956 1239.15 588.956 1228.55H586.956C586.956 1239.3 588.785 1250.25 594.975 1258.32L596.562 1257.1ZM588.956 1228.55C588.956 1217.94 590.775 1207.27 596.562 1199.73L594.975 1198.51C588.783 1206.59 586.956 1217.8 586.956 1228.55H588.956ZM596.575 1199.71C602.071 1192.21 611.367 1188.4 621.549 1188.4V1186.4C610.898 1186.4 600.924 1190.4 594.962 1198.53L596.575 1199.71ZM621.549 1188.4C631.732 1188.4 641.028 1192.21 646.524 1199.71L648.137 1198.53C642.175 1190.4 632.2 1186.4 621.549 1186.4V1188.4ZM646.537 1199.73C652.332 1207.29 654.404 1217.96 654.404 1228.55H656.404C656.404 1217.77 654.309 1206.58 648.124 1198.51L646.537 1199.73ZM654.404 1228.55C654.404 1239.12 652.334 1249.54 646.537 1257.1L648.124 1258.32C654.306 1250.26 656.404 1239.32 656.404 1228.55H654.404ZM792.432 1154.59L792.494 1155.58L792.5 1155.58L792.432 1154.59ZM767.952 1161.88L768.467 1162.74L768.473 1162.73L768.48 1162.73L767.952 1161.88ZM752.848 1177.5H751.848V1181.2L753.712 1178.01L752.848 1177.5ZM752.848 1158.23H753.848V1157.23H752.848V1158.23ZM721.598 1158.23V1157.23H720.598V1158.23H721.598ZM721.598 1298.86H720.598V1299.86H721.598V1298.86ZM757.275 1298.86V1299.86H758.275V1298.86H757.275ZM766.39 1197.3L765.665 1196.61L765.66 1196.61L765.655 1196.62L766.39 1197.3ZM788.786 1187.66L788.709 1186.66L788.709 1186.66L788.786 1187.66ZM815.869 1191.31L815.503 1192.24L816.869 1192.77V1191.31H815.869ZM815.869 1158.49H816.869V1157.82L816.241 1157.56L815.869 1158.49ZM792.369 1153.59C783.919 1154.12 775.153 1156.23 767.425 1161.03L768.48 1162.73C775.856 1158.15 784.278 1156.1 792.494 1155.58L792.369 1153.59ZM767.438 1161.02C760.761 1165.03 755.701 1170.63 751.985 1177L753.712 1178.01C757.287 1171.88 762.123 1166.54 768.467 1162.74L767.438 1161.02ZM753.848 1177.5V1158.23H751.848V1177.5H753.848ZM752.848 1157.23H721.598V1159.23H752.848V1157.23ZM720.598 1158.23V1298.86H722.598V1158.23H720.598ZM721.598 1299.86H757.275V1297.86H721.598V1299.86ZM758.275 1298.86V1223.86H756.275V1298.86H758.275ZM758.275 1223.86C758.275 1213.61 761.092 1204.51 767.125 1197.97L765.655 1196.62C759.188 1203.62 756.275 1213.27 756.275 1223.86H758.275ZM767.115 1197.98C771.87 1192.98 778.919 1189.42 788.863 1188.66L788.709 1186.66C778.34 1187.46 770.806 1191.2 765.665 1196.61L767.115 1197.98ZM788.863 1188.66C798.879 1187.89 808.362 1189.43 815.503 1192.24L816.235 1190.37C808.793 1187.45 799.005 1185.87 788.709 1186.66L788.863 1188.66ZM816.869 1191.31V1158.49H814.869V1191.31H816.869ZM816.241 1157.56C808.299 1154.39 800.076 1153.06 792.363 1153.59L792.5 1155.58C799.892 1155.07 807.815 1156.35 815.498 1159.42L816.241 1157.56ZM867.057 1238.18V1237.18H865.904L866.067 1238.32L867.057 1238.18ZM970.443 1238.18V1239.18H971.363L971.439 1238.26L970.443 1238.18ZM953.776 1177.76L954.544 1177.12L954.544 1177.12L953.776 1177.76ZM845.964 1177.76L845.201 1177.12L845.195 1177.12L845.964 1177.76ZM828.776 1228.55L829.776 1228.57L829.776 1228.57L828.776 1228.55ZM845.964 1279.33L845.191 1279.96L845.195 1279.97L845.964 1279.33ZM899.87 1302.76L899.92 1301.77L899.92 1301.77L899.87 1302.76ZM955.078 1280.11L955.821 1280.78L955.83 1280.77L955.837 1280.76L955.078 1280.11ZM963.411 1268.65L964.269 1269.16L964.854 1268.19L963.812 1267.73L963.411 1268.65ZM928.255 1253.28L928.656 1252.37L927.953 1252.06L927.474 1252.66L928.255 1253.28ZM925.651 1257.71L926.445 1258.32L926.465 1258.29L926.483 1258.27L925.651 1257.71ZM874.349 1257.71L875.155 1257.12L875.15 1257.11L875.144 1257.11L874.349 1257.71ZM925.651 1199.38L926.473 1198.81L926.464 1198.8L926.454 1198.78L925.651 1199.38ZM931.12 1210.84V1211.84H932.48L932.074 1210.54L931.12 1210.84ZM868.62 1210.84L867.665 1210.54L867.26 1211.84H868.62V1210.84ZM874.349 1199.38L875.142 1199.99L875.153 1199.97L875.164 1199.96L874.349 1199.38ZM867.057 1239.18H970.443V1237.18H867.057V1239.18ZM971.439 1238.26C971.7 1235.14 971.964 1231.72 971.964 1228.55H969.964C969.964 1231.62 969.707 1234.97 969.446 1238.1L971.439 1238.26ZM971.964 1228.55C971.964 1209.6 966.438 1191.4 954.544 1177.12L953.008 1178.4C964.552 1192.26 969.964 1209.99 969.964 1228.55H971.964ZM954.544 1177.12C941.299 1161.23 920.941 1153.33 899.87 1153.33V1155.33C920.465 1155.33 940.212 1163.05 953.008 1178.4L954.544 1177.12ZM899.87 1153.33C878.79 1153.33 858.44 1161.49 845.201 1177.12L846.726 1178.41C859.529 1163.3 879.283 1155.33 899.87 1155.33V1153.33ZM845.195 1177.12C833.294 1191.41 828.301 1208.83 827.776 1228.52L829.776 1228.57C830.292 1209.2 835.196 1192.25 846.732 1178.4L845.195 1177.12ZM827.776 1228.52C827.249 1247.24 833.052 1265.18 845.191 1279.96L846.736 1278.69C834.916 1264.3 829.261 1246.83 829.776 1228.57L827.776 1228.52ZM845.195 1279.97C858.459 1295.88 878.826 1302.71 899.82 1303.76L899.92 1301.77C879.247 1300.73 859.51 1294.02 846.732 1278.69L845.195 1279.97ZM899.82 1303.76C920.942 1304.82 941.55 1296.63 955.821 1280.78L954.335 1279.44C940.481 1294.83 920.464 1302.79 899.92 1301.77L899.82 1303.76ZM955.837 1280.76C958.994 1277.08 961.893 1273.12 964.269 1269.16L962.554 1268.13C960.243 1271.99 957.412 1275.85 954.319 1279.46L955.837 1280.76ZM963.812 1267.73L928.656 1252.37L927.855 1254.2L963.011 1269.57L963.812 1267.73ZM927.474 1252.66C926.887 1253.39 926.458 1254.19 926.067 1254.94C925.665 1255.71 925.303 1256.43 924.819 1257.16L926.483 1258.27C927.041 1257.43 927.46 1256.59 927.84 1255.86C928.23 1255.12 928.582 1254.48 929.036 1253.91L927.474 1252.66ZM924.857 1257.1C919.082 1264.64 910.018 1268.69 899.87 1268.69V1270.69C910.555 1270.69 920.241 1266.41 926.445 1258.32L924.857 1257.1ZM899.87 1268.69C889.972 1268.69 880.663 1264.63 875.155 1257.12L873.543 1258.3C879.493 1266.42 889.455 1270.69 899.87 1270.69V1268.69ZM875.144 1257.11C871.122 1251.83 869.076 1245.24 868.047 1238.04L866.067 1238.32C867.122 1245.7 869.243 1252.66 873.554 1258.32L875.144 1257.11ZM899.87 1188.4C910.035 1188.4 919.083 1192.2 924.848 1199.97L926.454 1198.78C920.24 1190.41 910.538 1186.4 899.87 1186.4V1188.4ZM924.829 1199.95C927.107 1203.24 928.889 1207.05 930.165 1211.13L932.074 1210.54C930.747 1206.29 928.883 1202.29 926.473 1198.81L924.829 1199.95ZM931.12 1209.84H868.62V1211.84H931.12V1209.84ZM869.574 1211.13C870.851 1207.05 872.627 1203.26 875.142 1199.99L873.556 1198.77C870.863 1202.27 868.993 1206.29 867.665 1210.54L869.574 1211.13ZM875.164 1199.96C880.663 1192.21 889.955 1188.4 899.87 1188.4V1186.4C889.472 1186.4 879.493 1190.4 873.533 1198.8L875.164 1199.96ZM534.326 1522.03L535.098 1522.67L535.1 1522.67L534.326 1522.03ZM556.201 1455.11L557.201 1455.13L557.201 1455.11L557.201 1455.09L556.201 1455.11ZM534.326 1387.92L533.553 1388.55L533.555 1388.56L534.326 1387.92ZM396.305 1387.92L397.075 1388.56L397.081 1388.55L397.087 1388.54L396.305 1387.92ZM396.305 1522.03L397.088 1521.41L397.082 1521.4L397.075 1521.4L396.305 1522.03ZM465.316 1519.43L465.332 1518.43L465.316 1518.43L465.3 1518.43L465.316 1519.43ZM424.43 1500.68L425.238 1500.09L425.23 1500.08L425.222 1500.07L424.43 1500.68ZM411.67 1455.11L410.67 1455.09L410.67 1455.11L410.67 1455.12L411.67 1455.11ZM424.43 1409.53L425.216 1410.15L425.227 1410.14L425.238 1410.12L424.43 1409.53ZM465.316 1390.78L465.3 1391.78L465.316 1391.78L465.332 1391.78L465.316 1390.78ZM506.201 1409.53L505.401 1410.13L505.407 1410.14L506.201 1409.53ZM465.316 1553.76C491.601 1553.76 517.688 1543.77 535.098 1522.67L533.555 1521.4C516.589 1541.96 491.113 1551.76 465.316 1551.76V1553.76ZM535.1 1522.67C550.648 1503.69 556.677 1481.32 557.201 1455.13L555.201 1455.09C554.684 1480.98 548.734 1502.87 533.553 1521.4L535.1 1522.67ZM557.201 1455.09C556.677 1429.95 551.176 1406.79 535.098 1387.28L533.555 1388.56C549.247 1407.59 554.683 1430.26 555.201 1455.13L557.201 1455.09ZM535.099 1387.29C518.211 1366.7 492.645 1356.45 465.316 1356.45V1358.45C492.153 1358.45 517.108 1368.51 533.553 1388.55L535.099 1387.29ZM465.316 1356.45C437.998 1356.45 412.159 1366.44 395.524 1387.3L397.087 1388.54C413.264 1368.26 438.467 1358.45 465.316 1358.45V1356.45ZM395.535 1387.28C380.247 1405.73 373.43 1429.94 373.43 1455.11H375.43C375.43 1430.28 382.155 1406.57 397.075 1388.56L395.535 1387.28ZM373.43 1455.11C373.43 1480.28 380.249 1504.22 395.535 1522.67L397.075 1521.4C382.154 1503.39 375.43 1479.93 375.43 1455.11H373.43ZM395.523 1522.66C411.894 1543.25 438.251 1553.76 465.316 1553.76V1551.76C438.734 1551.76 413.008 1541.44 397.088 1521.41L395.523 1522.66ZM465.3 1518.43C449.413 1518.69 434.126 1512.28 425.238 1500.09L423.622 1501.27C432.964 1514.08 448.926 1520.69 465.332 1520.43L465.3 1518.43ZM425.222 1500.07C415.785 1487.83 412.929 1471.43 412.67 1455.09L410.67 1455.12C410.932 1471.6 413.805 1488.53 423.638 1501.29L425.222 1500.07ZM412.67 1455.12C412.929 1438.78 415.788 1422.13 425.216 1410.15L423.645 1408.92C413.802 1421.42 410.931 1438.62 410.67 1455.09L412.67 1455.12ZM425.238 1410.12C434.126 1397.94 449.413 1391.53 465.3 1391.78L465.332 1389.78C448.926 1389.52 432.964 1396.13 423.622 1408.95L425.238 1410.12ZM465.332 1391.78C481.209 1391.53 496.248 1397.93 505.401 1410.13L507.001 1408.93C497.405 1396.14 481.714 1389.52 465.3 1389.78L465.332 1391.78ZM505.407 1410.14C514.587 1422.13 517.701 1438.79 517.701 1455.11H519.701C519.701 1438.61 516.565 1421.42 506.995 1408.93L505.407 1410.14ZM517.701 1455.11C517.701 1471.42 514.59 1487.83 505.401 1500.08L507.001 1501.28C516.563 1488.53 519.701 1471.61 519.701 1455.11H517.701ZM505.401 1500.08C496.248 1512.29 481.209 1518.69 465.332 1518.43L465.3 1520.43C481.714 1520.7 497.405 1514.08 507.001 1501.28L505.401 1500.08ZM675.765 1408.23V1407.23H674.765V1408.23H675.765ZM674.202 1494.95L673.223 1494.75L673.222 1494.76L674.202 1494.95ZM663.786 1512.92L664.371 1513.73L664.379 1513.73L664.386 1513.72L663.786 1512.92ZM647.119 1518.39V1519.39H647.139L647.159 1519.39L647.119 1518.39ZM624.984 1510.58L625.709 1509.89L625.7 1509.88L625.691 1509.87L624.984 1510.58ZM615.609 1408.23H616.609V1407.23H615.609V1408.23ZM579.671 1408.23V1407.23H578.671V1408.23H579.671ZM598.682 1537.14L598.004 1537.87L598.01 1537.88L598.682 1537.14ZM642.171 1552.76L642.205 1553.76L642.212 1553.76L642.171 1552.76ZM680.192 1539.22H681.192V1537.16L679.572 1538.44L680.192 1539.22ZM680.192 1548.86H679.192V1549.86H680.192V1548.86ZM711.442 1548.86V1549.86H712.442V1548.86H711.442ZM711.442 1408.23H712.442V1407.23H711.442V1408.23ZM674.765 1408.23V1469.43H676.765V1408.23H674.765ZM674.765 1469.43C674.765 1479.08 674.501 1488.61 673.223 1494.75L675.181 1495.16C676.508 1488.79 676.765 1479.05 676.765 1469.43H674.765ZM673.222 1494.76C671.697 1502.38 668.158 1508.39 663.186 1512.12L664.386 1513.72C669.83 1509.64 673.583 1503.15 675.183 1495.15L673.222 1494.76ZM663.2 1512.11C658.688 1515.37 653.414 1517.14 647.079 1517.39L647.159 1519.39C653.845 1519.12 659.508 1517.24 664.371 1513.73L663.2 1512.11ZM647.119 1517.39C637.651 1517.39 630.405 1514.83 625.709 1509.89L624.259 1511.27C629.458 1516.74 637.316 1519.39 647.119 1519.39V1517.39ZM625.691 1509.87C618.704 1502.88 616.609 1491.27 616.609 1478.55H614.609C614.609 1491.34 616.68 1503.69 624.277 1511.28L625.691 1509.87ZM616.609 1478.55V1408.23H614.609V1478.55H616.609ZM615.609 1407.23H579.671V1409.23H615.609V1407.23ZM578.671 1408.23V1478.55H580.671V1408.23H578.671ZM578.671 1478.55C578.671 1503.06 581.004 1522.2 598.004 1537.87L599.359 1536.4C583.026 1521.35 580.671 1502.99 580.671 1478.55H578.671ZM598.01 1537.88C609.407 1548.22 626.33 1554.29 642.205 1553.76L642.138 1551.76C626.763 1552.28 610.352 1546.37 599.353 1536.4L598.01 1537.88ZM642.212 1553.76C655.144 1553.24 669.42 1549.01 680.812 1540.01L679.572 1538.44C668.568 1547.14 654.72 1551.25 642.13 1551.76L642.212 1553.76ZM679.192 1539.22V1548.86H681.192V1539.22H679.192ZM680.192 1549.86H711.442V1547.86H680.192V1549.86ZM712.442 1548.86V1408.23H710.442V1548.86H712.442ZM711.442 1407.23H675.765V1409.23H711.442V1407.23ZM818.799 1404.59L818.861 1405.58L818.868 1405.58L818.799 1404.59ZM794.32 1411.88L794.834 1412.74L794.841 1412.73L794.847 1412.73L794.32 1411.88ZM779.215 1427.5H778.215V1431.2L780.079 1428.01L779.215 1427.5ZM779.215 1408.23H780.215V1407.23H779.215V1408.23ZM747.965 1408.23V1407.23H746.965V1408.23H747.965ZM747.965 1548.86H746.965V1549.86H747.965V1548.86ZM783.643 1548.86V1549.86H784.643V1548.86H783.643ZM792.757 1447.3L792.032 1446.61L792.027 1446.61L792.022 1446.62L792.757 1447.3ZM815.153 1437.66L815.076 1436.66L815.076 1436.66L815.153 1437.66ZM842.236 1441.31L841.871 1442.24L843.236 1442.77V1441.31H842.236ZM842.236 1408.49H843.236V1407.82L842.608 1407.56L842.236 1408.49ZM818.736 1403.59C810.286 1404.12 801.52 1406.23 793.792 1411.03L794.847 1412.73C802.223 1408.15 810.645 1406.1 818.861 1405.58L818.736 1403.59ZM793.805 1411.02C787.129 1415.03 782.069 1420.63 778.352 1427L780.079 1428.01C783.654 1421.88 788.49 1416.54 794.834 1412.74L793.805 1411.02ZM780.215 1427.5V1408.23H778.215V1427.5H780.215ZM779.215 1407.23H747.965V1409.23H779.215V1407.23ZM746.965 1408.23V1548.86H748.965V1408.23H746.965ZM747.965 1549.86H783.643V1547.86H747.965V1549.86ZM784.643 1548.86V1473.86H782.643V1548.86H784.643ZM784.643 1473.86C784.643 1463.61 787.459 1454.51 793.492 1447.97L792.022 1446.62C785.556 1453.62 782.643 1463.27 782.643 1473.86H784.643ZM793.482 1447.98C798.237 1442.98 805.286 1439.42 815.23 1438.66L815.076 1436.66C804.707 1437.46 797.173 1441.2 792.032 1446.61L793.482 1447.98ZM815.23 1438.66C825.246 1437.89 834.729 1439.43 841.871 1442.24L842.602 1440.37C835.16 1437.45 825.372 1435.87 815.076 1436.66L815.23 1438.66ZM843.236 1441.31V1408.49H841.236V1441.31H843.236ZM842.608 1407.56C834.666 1404.39 826.443 1403.06 818.73 1403.59L818.868 1405.58C826.259 1405.07 834.182 1406.35 841.865 1409.42L842.608 1407.56ZM1118.34 1361.36V1360.36H1117.58L1117.38 1361.09L1118.34 1361.36ZM1082.93 1487.66L1081.96 1487.93L1082.92 1491.38L1083.89 1487.93L1082.93 1487.66ZM1047.77 1361.36L1048.73 1361.09L1048.53 1360.35L1047.76 1360.36L1047.77 1361.36ZM1010.53 1361.62L1010.52 1360.62L1009.77 1360.62L1009.57 1361.35L1010.53 1361.62ZM975.635 1487.66L974.671 1487.93L975.637 1491.4L976.599 1487.93L975.635 1487.66ZM940.479 1361.36L941.442 1361.09L941.238 1360.36H940.479V1361.36ZM903.239 1361.36V1360.36H901.904L902.279 1361.64L903.239 1361.36ZM958.187 1548.86L957.227 1549.14L957.438 1549.86H958.187V1548.86ZM993.083 1548.86V1549.86H993.832L994.043 1549.14L993.083 1548.86ZM1029.28 1424.9L1030.24 1424.62L1029.28 1421.34L1028.32 1424.62L1029.28 1424.9ZM1065.74 1548.86L1064.78 1549.14L1064.99 1549.86H1065.74V1548.86ZM1100.63 1548.86V1549.86H1101.38L1101.59 1549.14L1100.63 1548.86ZM1155.58 1361.36L1156.54 1361.64L1156.92 1360.36H1155.58V1361.36ZM1117.38 1361.09L1081.96 1487.39L1083.89 1487.93L1119.31 1361.63L1117.38 1361.09ZM1083.89 1487.39L1048.73 1361.09L1046.81 1361.63L1081.96 1487.93L1083.89 1487.39ZM1047.76 1360.36L1010.52 1360.62L1010.54 1362.62L1047.78 1362.36L1047.76 1360.36ZM1009.57 1361.35L974.671 1487.39L976.599 1487.93L1011.49 1361.88L1009.57 1361.35ZM976.598 1487.39L941.442 1361.09L939.515 1361.63L974.671 1487.93L976.598 1487.39ZM940.479 1360.36H903.239V1362.36H940.479V1360.36ZM902.279 1361.64L957.227 1549.14L959.146 1548.58L904.199 1361.08L902.279 1361.64ZM958.187 1549.86H993.083V1547.86H958.187V1549.86ZM994.043 1549.14L1030.24 1425.18L1028.32 1424.62L992.123 1548.58L994.043 1549.14ZM1028.32 1425.18L1064.78 1549.14L1066.7 1548.58L1030.24 1424.62L1028.32 1425.18ZM1065.74 1549.86H1100.63V1547.86H1065.74V1549.86ZM1101.59 1549.14L1156.54 1361.64L1154.62 1361.08L1099.68 1548.58L1101.59 1549.14ZM1155.58 1360.36H1118.34V1362.36H1155.58V1360.36ZM1285.81 1529.33L1286.57 1529.97L1286.58 1529.96L1286.59 1529.95L1285.81 1529.33ZM1285.81 1427.76L1285.04 1428.4L1285.04 1428.41L1285.81 1427.76ZM1177.99 1427.76L1177.23 1427.12L1177.22 1427.13L1177.99 1427.76ZM1177.99 1529.33L1177.22 1529.96L1177.23 1529.97L1177.23 1529.97L1177.99 1529.33ZM1257.68 1507.71L1256.89 1507.1L1256.88 1507.11L1256.88 1507.12L1257.68 1507.71ZM1206.12 1507.71L1206.93 1507.12L1206.92 1507.11L1206.91 1507.1L1206.12 1507.71ZM1206.12 1449.12L1206.91 1449.73L1206.92 1449.72L1206.93 1449.71L1206.12 1449.12ZM1257.68 1449.12L1256.88 1449.71L1256.88 1449.72L1256.89 1449.73L1257.68 1449.12ZM1231.9 1553.76C1253.24 1553.76 1273.07 1545.86 1286.57 1529.97L1285.05 1528.68C1271.98 1544.05 1252.75 1551.76 1231.9 1551.76V1553.76ZM1286.59 1529.95C1298.72 1514.92 1304.26 1498.81 1304.26 1478.55H1302.26C1302.26 1498.38 1296.86 1514.04 1285.03 1528.7L1286.59 1529.95ZM1304.26 1478.55C1304.26 1459.34 1299.25 1442.18 1286.57 1427.12L1285.04 1428.41C1297.36 1443.04 1302.26 1459.73 1302.26 1478.55H1304.26ZM1286.58 1427.12C1273.33 1411.23 1252.97 1403.33 1231.9 1403.33V1405.33C1252.5 1405.33 1272.24 1413.05 1285.04 1428.4L1286.58 1427.12ZM1231.9 1403.33C1211.08 1403.33 1190.47 1411.49 1177.23 1427.12L1178.76 1428.41C1191.56 1413.3 1211.57 1405.33 1231.9 1405.33V1403.33ZM1177.22 1427.13C1165.86 1440.87 1159.81 1458.55 1159.81 1478.55H1161.81C1161.81 1458.96 1167.73 1441.74 1178.77 1428.4L1177.22 1427.13ZM1159.81 1478.55C1159.81 1498.01 1165.07 1515.17 1177.22 1529.96L1178.77 1528.69C1166.96 1514.31 1161.81 1497.62 1161.81 1478.55H1159.81ZM1177.23 1529.97C1190.47 1545.6 1210.82 1553.76 1231.9 1553.76V1551.76C1211.31 1551.76 1191.56 1543.79 1178.76 1528.68L1177.23 1529.97ZM1256.88 1507.12C1251.37 1514.63 1242.06 1518.69 1231.9 1518.69V1520.69C1242.57 1520.69 1252.54 1516.42 1258.49 1508.3L1256.88 1507.12ZM1231.9 1518.69C1221.74 1518.69 1212.43 1514.63 1206.93 1507.12L1205.31 1508.3C1211.27 1516.42 1221.23 1520.69 1231.9 1520.69V1518.69ZM1206.91 1507.1C1201.12 1499.55 1199.31 1489.15 1199.31 1478.55H1197.31C1197.31 1489.3 1199.14 1500.25 1205.33 1508.32L1206.91 1507.1ZM1199.31 1478.55C1199.31 1467.94 1201.13 1457.27 1206.91 1449.73L1205.33 1448.51C1199.13 1456.59 1197.31 1467.8 1197.31 1478.55H1199.31ZM1206.93 1449.71C1212.42 1442.21 1221.72 1438.4 1231.9 1438.4V1436.4C1221.25 1436.4 1211.28 1440.4 1205.31 1448.53L1206.93 1449.71ZM1231.9 1438.4C1242.08 1438.4 1251.38 1442.21 1256.88 1449.71L1258.49 1448.53C1252.53 1440.4 1242.55 1436.4 1231.9 1436.4V1438.4ZM1256.89 1449.73C1262.68 1457.29 1264.76 1467.96 1264.76 1478.55H1266.76C1266.76 1467.77 1264.66 1456.58 1258.48 1448.51L1256.89 1449.73ZM1264.76 1478.55C1264.76 1489.12 1262.69 1499.54 1256.89 1507.1L1258.48 1508.32C1264.66 1500.26 1266.76 1489.32 1266.76 1478.55H1264.76ZM1402.78 1404.59L1402.85 1405.58L1402.85 1405.58L1402.78 1404.59ZM1378.3 1411.88L1378.82 1412.74L1378.83 1412.73L1378.83 1412.73L1378.3 1411.88ZM1363.2 1427.5H1362.2V1431.2L1364.06 1428.01L1363.2 1427.5ZM1363.2 1408.23H1364.2V1407.23H1363.2V1408.23ZM1331.95 1408.23V1407.23H1330.95V1408.23H1331.95ZM1331.95 1548.86H1330.95V1549.86H1331.95V1548.86ZM1367.63 1548.86V1549.86H1368.63V1548.86H1367.63ZM1376.74 1447.3L1376.02 1446.61L1376.01 1446.61L1376.01 1446.62L1376.74 1447.3ZM1399.14 1437.66L1399.06 1436.66L1399.06 1436.66L1399.14 1437.66ZM1426.22 1441.31L1425.86 1442.24L1427.22 1442.77V1441.31H1426.22ZM1426.22 1408.49H1427.22V1407.82L1426.59 1407.56L1426.22 1408.49ZM1402.72 1403.59C1394.27 1404.12 1385.5 1406.23 1377.78 1411.03L1378.83 1412.73C1386.21 1408.15 1394.63 1406.1 1402.85 1405.58L1402.72 1403.59ZM1377.79 1411.02C1371.11 1415.03 1366.05 1420.63 1362.34 1427L1364.06 1428.01C1367.64 1421.88 1372.47 1416.54 1378.82 1412.74L1377.79 1411.02ZM1364.2 1427.5V1408.23H1362.2V1427.5H1364.2ZM1363.2 1407.23H1331.95V1409.23H1363.2V1407.23ZM1330.95 1408.23V1548.86H1332.95V1408.23H1330.95ZM1331.95 1549.86H1367.63V1547.86H1331.95V1549.86ZM1368.63 1548.86V1473.86H1366.63V1548.86H1368.63ZM1368.63 1473.86C1368.63 1463.61 1371.44 1454.51 1377.48 1447.97L1376.01 1446.62C1369.54 1453.62 1366.63 1463.27 1366.63 1473.86H1368.63ZM1377.47 1447.98C1382.22 1442.98 1389.27 1439.42 1399.21 1438.66L1399.06 1436.66C1388.69 1437.46 1381.16 1441.2 1376.02 1446.61L1377.47 1447.98ZM1399.21 1438.66C1409.23 1437.89 1418.71 1439.43 1425.86 1442.24L1426.59 1440.37C1419.14 1437.45 1409.36 1435.87 1399.06 1436.66L1399.21 1438.66ZM1427.22 1441.31V1408.49H1425.22V1441.31H1427.22ZM1426.59 1407.56C1418.65 1404.39 1410.43 1403.06 1402.71 1403.59L1402.85 1405.58C1410.24 1405.07 1418.17 1406.35 1425.85 1409.42L1426.59 1407.56ZM1486.78 1485.84V1484.84H1485.78V1485.84H1486.78ZM1501.63 1485.84L1502.46 1485.29L1502.17 1484.84H1501.63V1485.84ZM1542.77 1548.86L1541.94 1549.4L1542.23 1549.86H1542.77V1548.86ZM1582.36 1548.86V1549.86H1584.2L1583.19 1548.31L1582.36 1548.86ZM1532.36 1472.3L1531.53 1471.73L1531.16 1472.28L1531.52 1472.84L1532.36 1472.3ZM1575.85 1408.23L1576.67 1408.79L1577.73 1407.23H1575.85V1408.23ZM1535.74 1408.23V1407.23H1535.21L1534.91 1407.67L1535.74 1408.23ZM1501.63 1458.49V1459.49H1502.16L1502.46 1459.05L1501.63 1458.49ZM1486.78 1458.49H1485.78V1459.49H1486.78V1458.49ZM1486.78 1361.62H1487.78V1360.62H1486.78V1361.62ZM1450.85 1361.62V1360.62H1449.85V1361.62H1450.85ZM1450.85 1548.86H1449.85V1549.86H1450.85V1548.86ZM1486.78 1548.86V1549.86H1487.78V1548.86H1486.78ZM1486.78 1486.84H1501.63V1484.84H1486.78V1486.84ZM1500.79 1486.38L1541.94 1549.4L1543.61 1548.31L1502.46 1485.29L1500.79 1486.38ZM1542.77 1549.86H1582.36V1547.86H1542.77V1549.86ZM1583.19 1548.31L1533.19 1471.75L1531.52 1472.84L1581.52 1549.4L1583.19 1548.31ZM1533.18 1472.86L1576.67 1408.79L1575.02 1407.67L1531.53 1471.73L1533.18 1472.86ZM1575.85 1407.23H1535.74V1409.23H1575.85V1407.23ZM1534.91 1407.67L1500.8 1457.93L1502.46 1459.05L1536.57 1408.79L1534.91 1407.67ZM1501.63 1457.49H1486.78V1459.49H1501.63V1457.49ZM1487.78 1458.49V1361.62H1485.78V1458.49H1487.78ZM1486.78 1360.62H1450.85V1362.62H1486.78V1360.62ZM1449.85 1361.62V1548.86H1451.85V1361.62H1449.85ZM1450.85 1549.86H1486.78V1547.86H1450.85V1549.86ZM1487.78 1548.86V1485.84H1485.78V1548.86H1487.78ZM1712.74 1445.47L1712.98 1446.44L1714.07 1446.18L1713.68 1445.13L1712.74 1445.47ZM1682.8 1411.36L1682.34 1412.25L1682.34 1412.25L1682.8 1411.36ZM1652.85 1404.33L1652.82 1405.33L1652.83 1405.33H1652.85V1404.33ZM1622.12 1409.8L1621.73 1408.88L1621.72 1408.88L1622.12 1409.8ZM1610.92 1476.72L1611.54 1475.94L1611.53 1475.93L1611.52 1475.92L1610.92 1476.72ZM1638.79 1489.22L1639.04 1488.26L1639.04 1488.26L1638.79 1489.22ZM1661.44 1495.21L1661.71 1494.25L1661.71 1494.25L1661.44 1495.21ZM1676.03 1501.98L1676.73 1501.28L1676.73 1501.28L1676.03 1501.98ZM1678.37 1508.23L1679.35 1508.43L1679.37 1508.33V1508.23H1678.37ZM1674.72 1514.74L1675.35 1515.52L1675.37 1515.5L1675.39 1515.49L1674.72 1514.74ZM1631.49 1511.36L1632.23 1510.68L1632.22 1510.66L1632.2 1510.65L1631.49 1511.36ZM1624.98 1495.47H1625.98V1494.19L1624.74 1494.5L1624.98 1495.47ZM1591.39 1503.81L1591.15 1502.83L1590.33 1503.04L1590.39 1503.88L1591.39 1503.81ZM1606.23 1534.01L1605.49 1534.68L1605.5 1534.69L1605.51 1534.7L1606.23 1534.01ZM1693.99 1543.65L1694.53 1544.5L1694.54 1544.49L1693.99 1543.65ZM1714.05 1511.36L1715.04 1511.44L1715.04 1511.43L1714.05 1511.36ZM1697.64 1476.2L1697 1476.97L1697.02 1476.98L1697.03 1476.99L1697.64 1476.2ZM1670.04 1463.44L1670.33 1462.49L1670.31 1462.48L1670.29 1462.47L1670.04 1463.44ZM1647.9 1457.45L1648.18 1456.49L1648.18 1456.49L1647.9 1457.45ZM1633.06 1450.42L1632.11 1450.74L1632.16 1450.91L1632.28 1451.04L1633.06 1450.42ZM1636.96 1440.78L1636.47 1439.92L1636.44 1439.93L1636.41 1439.95L1636.96 1440.78ZM1667.43 1441.31L1666.94 1442.18L1666.96 1442.19L1666.98 1442.2L1667.43 1441.31ZM1678.37 1453.81L1677.42 1454.11L1677.7 1455L1678.6 1454.78L1678.37 1453.81ZM1713.68 1445.13C1708.13 1430.06 1697.29 1417.62 1683.25 1410.47L1682.34 1412.25C1695.91 1419.16 1706.42 1431.2 1711.81 1445.82L1713.68 1445.13ZM1683.25 1410.47C1673.46 1405.44 1662.62 1403.33 1652.85 1403.33V1405.33C1662.35 1405.33 1672.86 1407.38 1682.34 1412.25L1683.25 1410.47ZM1652.88 1403.33C1643.14 1403.06 1632.83 1404.12 1621.73 1408.88L1622.51 1410.71C1633.28 1406.1 1643.29 1405.07 1652.82 1405.33L1652.88 1403.33ZM1621.72 1408.88C1606.56 1415.53 1595.34 1429.92 1595.34 1448.08H1597.34C1597.34 1430.82 1607.99 1417.08 1622.52 1410.71L1621.72 1408.88ZM1595.34 1448.08C1595.34 1458.27 1600.42 1470.03 1610.32 1477.52L1611.52 1475.92C1602.15 1468.83 1597.34 1457.67 1597.34 1448.08H1595.34ZM1610.3 1477.51C1617.74 1483.35 1625.7 1486.79 1638.53 1490.19L1639.04 1488.26C1626.35 1484.89 1618.68 1481.55 1611.54 1475.94L1610.3 1477.51ZM1638.53 1490.19C1646.36 1492.28 1653.63 1494.09 1661.18 1496.18L1661.71 1494.25C1654.15 1492.16 1646.83 1490.33 1639.04 1488.26L1638.53 1490.19ZM1661.17 1496.18C1663.51 1496.82 1666.26 1497.66 1668.83 1498.74C1671.43 1499.83 1673.76 1501.13 1675.32 1502.69L1676.73 1501.28C1674.9 1499.45 1672.29 1498.02 1669.61 1496.89C1666.91 1495.76 1664.07 1494.9 1661.71 1494.25L1661.17 1496.18ZM1675.32 1502.69C1676.14 1503.51 1676.64 1504.3 1676.94 1505.15C1677.24 1506.01 1677.37 1506.99 1677.37 1508.23H1679.37C1679.37 1506.87 1679.23 1505.64 1678.82 1504.48C1678.41 1503.31 1677.73 1502.28 1676.73 1501.28L1675.32 1502.69ZM1677.39 1508.04C1677.13 1509.32 1676.89 1510.25 1676.44 1511.13C1675.99 1512 1675.3 1512.88 1674.05 1514L1675.39 1515.49C1676.75 1514.26 1677.62 1513.19 1678.22 1512.04C1678.8 1510.9 1679.09 1509.75 1679.35 1508.43L1677.39 1508.04ZM1674.09 1513.97C1672.2 1515.5 1669.07 1516.64 1665.5 1517.38C1661.97 1518.11 1658.13 1518.43 1654.93 1518.43V1520.43C1658.25 1520.43 1662.22 1520.1 1665.91 1519.34C1669.57 1518.58 1673.08 1517.37 1675.35 1515.52L1674.09 1513.97ZM1654.93 1518.43C1646.4 1518.43 1638.18 1517.13 1632.23 1510.68L1630.76 1512.04C1637.31 1519.13 1646.27 1520.43 1654.93 1520.43V1518.43ZM1632.2 1510.65C1630.38 1508.83 1628.82 1506.05 1627.71 1503.15C1626.59 1500.26 1625.98 1497.39 1625.98 1495.47H1623.98C1623.98 1497.72 1624.68 1500.84 1625.84 1503.87C1627.01 1506.9 1628.7 1509.97 1630.79 1512.06L1632.2 1510.65ZM1624.74 1494.5L1591.15 1502.83L1591.63 1504.78L1625.22 1496.44L1624.74 1494.5ZM1590.39 1503.88C1590.67 1507.73 1592.83 1513.61 1595.67 1519.35C1598.52 1525.13 1602.15 1530.94 1605.49 1534.68L1606.98 1533.35C1603.81 1529.79 1600.27 1524.15 1597.46 1518.47C1594.64 1512.75 1592.63 1507.17 1592.39 1503.73L1590.39 1503.88ZM1605.51 1534.7C1618.77 1548.76 1635.48 1553.76 1654.93 1553.76V1551.76C1635.85 1551.76 1619.74 1546.87 1606.96 1533.33L1605.51 1534.7ZM1654.93 1553.76C1669.33 1553.76 1683.1 1551.67 1694.53 1544.5L1693.46 1542.8C1682.5 1549.69 1669.18 1551.76 1654.93 1551.76V1553.76ZM1694.54 1544.49C1706.49 1536.79 1713.97 1525.06 1715.04 1511.44L1713.05 1511.28C1712.03 1524.22 1704.93 1535.41 1693.45 1542.81L1694.54 1544.49ZM1715.04 1511.43C1716.11 1496.74 1709.95 1484.45 1698.25 1475.41L1697.03 1476.99C1708.25 1485.66 1714.06 1497.33 1713.05 1511.29L1715.04 1511.43ZM1698.28 1475.43C1688.98 1467.73 1682.01 1466.12 1670.33 1462.49L1669.74 1464.4C1681.5 1468.05 1688.07 1469.57 1697 1476.97L1698.28 1475.43ZM1670.29 1462.47C1663.25 1460.65 1655.2 1458.57 1648.18 1456.49L1647.62 1458.41C1654.67 1460.5 1662.76 1462.59 1669.78 1464.41L1670.29 1462.47ZM1648.18 1456.49C1644.69 1455.46 1641.55 1454.37 1639.04 1453.22C1636.49 1452.06 1634.72 1450.9 1633.84 1449.8L1632.28 1451.04C1633.47 1452.54 1635.61 1453.86 1638.21 1455.04C1640.84 1456.24 1644.08 1457.36 1647.62 1458.41L1648.18 1456.49ZM1634.01 1450.1C1633.69 1449.16 1633.28 1448.38 1633.28 1447.3H1631.28C1631.28 1448.81 1631.9 1450.11 1632.11 1450.74L1634.01 1450.1ZM1633.28 1447.3C1633.28 1446.16 1633.81 1444.09 1637.52 1441.62L1636.41 1439.95C1632.31 1442.69 1631.28 1445.31 1631.28 1447.3H1633.28ZM1637.46 1441.65C1640.89 1439.69 1646.16 1438.66 1652.33 1438.66V1436.66C1646 1436.66 1640.33 1437.71 1636.47 1439.92L1637.46 1441.65ZM1652.33 1438.66C1657.91 1438.66 1662.94 1439.93 1666.94 1442.18L1667.92 1440.43C1663.59 1437.99 1658.2 1436.66 1652.33 1436.66V1438.66ZM1666.98 1442.2C1671.45 1444.43 1675.94 1449.44 1677.42 1454.11L1679.32 1453.5C1677.67 1448.28 1672.79 1442.86 1667.88 1440.41L1666.98 1442.2ZM1678.6 1454.78L1712.98 1446.44L1712.51 1444.5L1678.13 1452.83L1678.6 1454.78Z" fill="white"/>
<circle cx="24.6746" cy="5.55554" r="5.00073" fill="#FFE073"/>
<circle cx="1269.1" cy="270.999" r="5.00073" fill="#FFE073"/>
<circle cx="1795.38" cy="328.823" r="2.73603" fill="#EE7B11"/>
<circle cx="990.031" cy="38.2641" r="2.73603" fill="#EE7B11"/>
<circle cx="202.341" cy="549.476" r="2.73603" fill="#EE7B11"/>
<circle cx="1541.31" cy="174.578" r="1.92193" fill="#165DF5"/>
<g opacity="0.2" clip-path="url(#clip0_1_447)">
<path d="M100.605 52C102.262 52 103.605 50.6569 103.605 49C103.605 47.3431 102.262 46 100.605 46C98.9486 46 97.6055 47.3431 97.6055 49C97.6055 50.6569 98.9486 52 100.605 52Z" fill="#B7BBC4"/>
<path d="M124.605 51.5C125.986 51.5 127.105 50.3807 127.105 49C127.105 47.6193 125.986 46.5 124.605 46.5C123.225 46.5 122.105 47.6193 122.105 49C122.105 50.3807 123.225 51.5 124.605 51.5Z" stroke="#B7BBC4"/>
<path d="M148.605 52C150.262 52 151.605 50.6569 151.605 49C151.605 47.3431 150.262 46 148.605 46C146.949 46 145.605 47.3431 145.605 49C145.605 50.6569 146.949 52 148.605 52Z" fill="#B7BBC4"/>
<path d="M172.605 51.5C173.986 51.5 175.105 50.3807 175.105 49C175.105 47.6193 173.986 46.5 172.605 46.5C171.225 46.5 170.105 47.6193 170.105 49C170.105 50.3807 171.225 51.5 172.605 51.5Z" stroke="#B7BBC4"/>
<path d="M196.605 52C198.262 52 199.605 50.6569 199.605 49C199.605 47.3431 198.262 46 196.605 46C194.949 46 193.605 47.3431 193.605 49C193.605 50.6569 194.949 52 196.605 52Z" fill="#B7BBC4"/>
<path d="M220.605 51.5C221.986 51.5 223.105 50.3807 223.105 49C223.105 47.6193 221.986 46.5 220.605 46.5C219.225 46.5 218.105 47.6193 218.105 49C218.105 50.3807 219.225 51.5 220.605 51.5Z" stroke="#B7BBC4"/>
<path d="M244.605 52C246.262 52 247.605 50.6569 247.605 49C247.605 47.3431 246.262 46 244.605 46C242.949 46 241.605 47.3431 241.605 49C241.605 50.6569 242.949 52 244.605 52Z" fill="#B7BBC4"/>
<path d="M100.605 78C102.262 78 103.605 76.6569 103.605 75C103.605 73.3431 102.262 72 100.605 72C98.9486 72 97.6055 73.3431 97.6055 75C97.6055 76.6569 98.9486 78 100.605 78Z" fill="#B7BBC4"/>
<path d="M124.605 77.5C125.986 77.5 127.105 76.3807 127.105 75C127.105 73.6193 125.986 72.5 124.605 72.5C123.225 72.5 122.105 73.6193 122.105 75C122.105 76.3807 123.225 77.5 124.605 77.5Z" stroke="#B7BBC4"/>
<path d="M148.605 78C150.262 78 151.605 76.6569 151.605 75C151.605 73.3431 150.262 72 148.605 72C146.949 72 145.605 73.3431 145.605 75C145.605 76.6569 146.949 78 148.605 78Z" fill="#B7BBC4"/>
<path d="M172.605 77.5C173.986 77.5 175.105 76.3807 175.105 75C175.105 73.6193 173.986 72.5 172.605 72.5C171.225 72.5 170.105 73.6193 170.105 75C170.105 76.3807 171.225 77.5 172.605 77.5Z" stroke="#B7BBC4"/>
<path d="M196.605 78C198.262 78 199.605 76.6569 199.605 75C199.605 73.3431 198.262 72 196.605 72C194.949 72 193.605 73.3431 193.605 75C193.605 76.6569 194.949 78 196.605 78Z" fill="#B7BBC4"/>
<path d="M220.605 77.5C221.986 77.5 223.105 76.3807 223.105 75C223.105 73.6193 221.986 72.5 220.605 72.5C219.225 72.5 218.105 73.6193 218.105 75C218.105 76.3807 219.225 77.5 220.605 77.5Z" stroke="#B7BBC4"/>
<path d="M244.605 78C246.262 78 247.605 76.6569 247.605 75C247.605 73.3431 246.262 72 244.605 72C242.949 72 241.605 73.3431 241.605 75C241.605 76.6569 242.949 78 244.605 78Z" fill="#B7BBC4"/>
<path d="M100.605 104C102.262 104 103.605 102.657 103.605 101C103.605 99.3431 102.262 98 100.605 98C98.9486 98 97.6055 99.3431 97.6055 101C97.6055 102.657 98.9486 104 100.605 104Z" fill="#B7BBC4"/>
<path d="M124.605 103.5C125.986 103.5 127.105 102.381 127.105 101C127.105 99.6193 125.986 98.5 124.605 98.5C123.225 98.5 122.105 99.6193 122.105 101C122.105 102.381 123.225 103.5 124.605 103.5Z" stroke="#B7BBC4"/>
<path d="M148.605 104C150.262 104 151.605 102.657 151.605 101C151.605 99.3431 150.262 98 148.605 98C146.949 98 145.605 99.3431 145.605 101C145.605 102.657 146.949 104 148.605 104Z" fill="#B7BBC4"/>
<path d="M172.605 103.5C173.986 103.5 175.105 102.381 175.105 101C175.105 99.6193 173.986 98.5 172.605 98.5C171.225 98.5 170.105 99.6193 170.105 101C170.105 102.381 171.225 103.5 172.605 103.5Z" stroke="#B7BBC4"/>
<path d="M196.605 104C198.262 104 199.605 102.657 199.605 101C199.605 99.3431 198.262 98 196.605 98C194.949 98 193.605 99.3431 193.605 101C193.605 102.657 194.949 104 196.605 104Z" fill="#B7BBC4"/>
<path d="M220.605 103.5C221.986 103.5 223.105 102.381 223.105 101C223.105 99.6193 221.986 98.5 220.605 98.5C219.225 98.5 218.105 99.6193 218.105 101C218.105 102.381 219.225 103.5 220.605 103.5Z" stroke="#B7BBC4"/>
<path d="M244.605 104C246.262 104 247.605 102.657 247.605 101C247.605 99.3431 246.262 98 244.605 98C242.949 98 241.605 99.3431 241.605 101C241.605 102.657 242.949 104 244.605 104Z" fill="#B7BBC4"/>
<path d="M100.605 130C102.262 130 103.605 128.657 103.605 127C103.605 125.343 102.262 124 100.605 124C98.9486 124 97.6055 125.343 97.6055 127C97.6055 128.657 98.9486 130 100.605 130Z" fill="#B7BBC4"/>
<path d="M124.605 129.5C125.986 129.5 127.105 128.381 127.105 127C127.105 125.619 125.986 124.5 124.605 124.5C123.225 124.5 122.105 125.619 122.105 127C122.105 128.381 123.225 129.5 124.605 129.5Z" stroke="#B7BBC4"/>
<path d="M148.605 130C150.262 130 151.605 128.657 151.605 127C151.605 125.343 150.262 124 148.605 124C146.949 124 145.605 125.343 145.605 127C145.605 128.657 146.949 130 148.605 130Z" fill="#B7BBC4"/>
<path d="M172.605 129.5C173.986 129.5 175.105 128.381 175.105 127C175.105 125.619 173.986 124.5 172.605 124.5C171.225 124.5 170.105 125.619 170.105 127C170.105 128.381 171.225 129.5 172.605 129.5Z" stroke="#B7BBC4"/>
<path d="M196.605 130C198.262 130 199.605 128.657 199.605 127C199.605 125.343 198.262 124 196.605 124C194.949 124 193.605 125.343 193.605 127C193.605 128.657 194.949 130 196.605 130Z" fill="#B7BBC4"/>
<path d="M220.605 129.5C221.986 129.5 223.105 128.381 223.105 127C223.105 125.619 221.986 124.5 220.605 124.5C219.225 124.5 218.105 125.619 218.105 127C218.105 128.381 219.225 129.5 220.605 129.5Z" stroke="#B7BBC4"/>
<path d="M244.605 130C246.262 130 247.605 128.657 247.605 127C247.605 125.343 246.262 124 244.605 124C242.949 124 241.605 125.343 241.605 127C241.605 128.657 242.949 130 244.605 130Z" fill="#B7BBC4"/>
<path d="M100.605 156C102.262 156 103.605 154.657 103.605 153C103.605 151.343 102.262 150 100.605 150C98.9486 150 97.6055 151.343 97.6055 153C97.6055 154.657 98.9486 156 100.605 156Z" fill="#B7BBC4"/>
<path d="M124.605 155.5C125.986 155.5 127.105 154.381 127.105 153C127.105 151.619 125.986 150.5 124.605 150.5C123.225 150.5 122.105 151.619 122.105 153C122.105 154.381 123.225 155.5 124.605 155.5Z" stroke="#B7BBC4"/>
<path d="M148.605 156C150.262 156 151.605 154.657 151.605 153C151.605 151.343 150.262 150 148.605 150C146.949 150 145.605 151.343 145.605 153C145.605 154.657 146.949 156 148.605 156Z" fill="#B7BBC4"/>
<path d="M172.605 155.5C173.986 155.5 175.105 154.381 175.105 153C175.105 151.619 173.986 150.5 172.605 150.5C171.225 150.5 170.105 151.619 170.105 153C170.105 154.381 171.225 155.5 172.605 155.5Z" stroke="#B7BBC4"/>
<path d="M196.605 156C198.262 156 199.605 154.657 199.605 153C199.605 151.343 198.262 150 196.605 150C194.949 150 193.605 151.343 193.605 153C193.605 154.657 194.949 156 196.605 156Z" fill="#B7BBC4"/>
<path d="M220.605 155.5C221.986 155.5 223.105 154.381 223.105 153C223.105 151.619 221.986 150.5 220.605 150.5C219.225 150.5 218.105 151.619 218.105 153C218.105 154.381 219.225 155.5 220.605 155.5Z" stroke="#B7BBC4"/>
<path d="M244.605 156C246.262 156 247.605 154.657 247.605 153C247.605 151.343 246.262 150 244.605 150C242.949 150 241.605 151.343 241.605 153C241.605 154.657 242.949 156 244.605 156Z" fill="#B7BBC4"/>
<path d="M100.605 182C102.262 182 103.605 180.657 103.605 179C103.605 177.343 102.262 176 100.605 176C98.9486 176 97.6055 177.343 97.6055 179C97.6055 180.657 98.9486 182 100.605 182Z" fill="#B7BBC4"/>
<path d="M124.605 181.5C125.986 181.5 127.105 180.381 127.105 179C127.105 177.619 125.986 176.5 124.605 176.5C123.225 176.5 122.105 177.619 122.105 179C122.105 180.381 123.225 181.5 124.605 181.5Z" stroke="#B7BBC4"/>
<path d="M148.605 182C150.262 182 151.605 180.657 151.605 179C151.605 177.343 150.262 176 148.605 176C146.949 176 145.605 177.343 145.605 179C145.605 180.657 146.949 182 148.605 182Z" fill="#B7BBC4"/>
<path d="M172.605 181.5C173.986 181.5 175.105 180.381 175.105 179C175.105 177.619 173.986 176.5 172.605 176.5C171.225 176.5 170.105 177.619 170.105 179C170.105 180.381 171.225 181.5 172.605 181.5Z" stroke="#B7BBC4"/>
<path d="M196.605 182C198.262 182 199.605 180.657 199.605 179C199.605 177.343 198.262 176 196.605 176C194.949 176 193.605 177.343 193.605 179C193.605 180.657 194.949 182 196.605 182Z" fill="#B7BBC4"/>
<path d="M220.605 181.5C221.986 181.5 223.105 180.381 223.105 179C223.105 177.619 221.986 176.5 220.605 176.5C219.225 176.5 218.105 177.619 218.105 179C218.105 180.381 219.225 181.5 220.605 181.5Z" stroke="#B7BBC4"/>
<path d="M244.605 182C246.262 182 247.605 180.657 247.605 179C247.605 177.343 246.262 176 244.605 176C242.949 176 241.605 177.343 241.605 179C241.605 180.657 242.949 182 244.605 182Z" fill="#B7BBC4"/>
<path d="M100.605 208C102.262 208 103.605 206.657 103.605 205C103.605 203.343 102.262 202 100.605 202C98.9486 202 97.6055 203.343 97.6055 205C97.6055 206.657 98.9486 208 100.605 208Z" fill="#B7BBC4"/>
<path d="M124.605 207.5C125.986 207.5 127.105 206.381 127.105 205C127.105 203.619 125.986 202.5 124.605 202.5C123.225 202.5 122.105 203.619 122.105 205C122.105 206.381 123.225 207.5 124.605 207.5Z" stroke="#B7BBC4"/>
<path d="M148.605 208C150.262 208 151.605 206.657 151.605 205C151.605 203.343 150.262 202 148.605 202C146.949 202 145.605 203.343 145.605 205C145.605 206.657 146.949 208 148.605 208Z" fill="#B7BBC4"/>
<path d="M172.605 207.5C173.986 207.5 175.105 206.381 175.105 205C175.105 203.619 173.986 202.5 172.605 202.5C171.225 202.5 170.105 203.619 170.105 205C170.105 206.381 171.225 207.5 172.605 207.5Z" stroke="#B7BBC4"/>
<path d="M196.605 208C198.262 208 199.605 206.657 199.605 205C199.605 203.343 198.262 202 196.605 202C194.949 202 193.605 203.343 193.605 205C193.605 206.657 194.949 208 196.605 208Z" fill="#B7BBC4"/>
<path d="M220.605 207.5C221.986 207.5 223.105 206.381 223.105 205C223.105 203.619 221.986 202.5 220.605 202.5C219.225 202.5 218.105 203.619 218.105 205C218.105 206.381 219.225 207.5 220.605 207.5Z" stroke="#B7BBC4"/>
<path d="M244.605 208C246.262 208 247.605 206.657 247.605 205C247.605 203.343 246.262 202 244.605 202C242.949 202 241.605 203.343 241.605 205C241.605 206.657 242.949 208 244.605 208Z" fill="#B7BBC4"/>
</g>
<g opacity="0.2" clip-path="url(#clip1_1_447)">
<path d="M1600.6 21C1602.26 21 1603.6 19.6569 1603.6 18C1603.6 16.3431 1602.26 15 1600.6 15C1598.95 15 1597.6 16.3431 1597.6 18C1597.6 19.6569 1598.95 21 1600.6 21Z" fill="#B7BBC4"/>
<path d="M1624.6 20.5C1625.99 20.5 1627.1 19.3807 1627.1 18C1627.1 16.6193 1625.99 15.5 1624.6 15.5C1623.22 15.5 1622.1 16.6193 1622.1 18C1622.1 19.3807 1623.22 20.5 1624.6 20.5Z" stroke="#B7BBC4"/>
<path d="M1648.6 21C1650.26 21 1651.6 19.6569 1651.6 18C1651.6 16.3431 1650.26 15 1648.6 15C1646.95 15 1645.6 16.3431 1645.6 18C1645.6 19.6569 1646.95 21 1648.6 21Z" fill="#B7BBC4"/>
<path d="M1672.6 20.5C1673.99 20.5 1675.1 19.3807 1675.1 18C1675.1 16.6193 1673.99 15.5 1672.6 15.5C1671.22 15.5 1670.1 16.6193 1670.1 18C1670.1 19.3807 1671.22 20.5 1672.6 20.5Z" stroke="#B7BBC4"/>
<path d="M1696.6 21C1698.26 21 1699.6 19.6569 1699.6 18C1699.6 16.3431 1698.26 15 1696.6 15C1694.95 15 1693.6 16.3431 1693.6 18C1693.6 19.6569 1694.95 21 1696.6 21Z" fill="#B7BBC4"/>
<path d="M1720.6 20.5C1721.99 20.5 1723.1 19.3807 1723.1 18C1723.1 16.6193 1721.99 15.5 1720.6 15.5C1719.22 15.5 1718.1 16.6193 1718.1 18C1718.1 19.3807 1719.22 20.5 1720.6 20.5Z" stroke="#B7BBC4"/>
<path d="M1744.6 21C1746.26 21 1747.6 19.6569 1747.6 18C1747.6 16.3431 1746.26 15 1744.6 15C1742.95 15 1741.6 16.3431 1741.6 18C1741.6 19.6569 1742.95 21 1744.6 21Z" fill="#B7BBC4"/>
<path d="M1600.6 47C1602.26 47 1603.6 45.6569 1603.6 44C1603.6 42.3431 1602.26 41 1600.6 41C1598.95 41 1597.6 42.3431 1597.6 44C1597.6 45.6569 1598.95 47 1600.6 47Z" fill="#B7BBC4"/>
<path d="M1624.6 46.5C1625.99 46.5 1627.1 45.3807 1627.1 44C1627.1 42.6193 1625.99 41.5 1624.6 41.5C1623.22 41.5 1622.1 42.6193 1622.1 44C1622.1 45.3807 1623.22 46.5 1624.6 46.5Z" stroke="#B7BBC4"/>
<path d="M1648.6 47C1650.26 47 1651.6 45.6569 1651.6 44C1651.6 42.3431 1650.26 41 1648.6 41C1646.95 41 1645.6 42.3431 1645.6 44C1645.6 45.6569 1646.95 47 1648.6 47Z" fill="#B7BBC4"/>
<path d="M1672.6 46.5C1673.99 46.5 1675.1 45.3807 1675.1 44C1675.1 42.6193 1673.99 41.5 1672.6 41.5C1671.22 41.5 1670.1 42.6193 1670.1 44C1670.1 45.3807 1671.22 46.5 1672.6 46.5Z" stroke="#B7BBC4"/>
<path d="M1696.6 47C1698.26 47 1699.6 45.6569 1699.6 44C1699.6 42.3431 1698.26 41 1696.6 41C1694.95 41 1693.6 42.3431 1693.6 44C1693.6 45.6569 1694.95 47 1696.6 47Z" fill="#B7BBC4"/>
<path d="M1720.6 46.5C1721.99 46.5 1723.1 45.3807 1723.1 44C1723.1 42.6193 1721.99 41.5 1720.6 41.5C1719.22 41.5 1718.1 42.6193 1718.1 44C1718.1 45.3807 1719.22 46.5 1720.6 46.5Z" stroke="#B7BBC4"/>
<path d="M1744.6 47C1746.26 47 1747.6 45.6569 1747.6 44C1747.6 42.3431 1746.26 41 1744.6 41C1742.95 41 1741.6 42.3431 1741.6 44C1741.6 45.6569 1742.95 47 1744.6 47Z" fill="#B7BBC4"/>
<path d="M1600.6 73C1602.26 73 1603.6 71.6569 1603.6 70C1603.6 68.3431 1602.26 67 1600.6 67C1598.95 67 1597.6 68.3431 1597.6 70C1597.6 71.6569 1598.95 73 1600.6 73Z" fill="#B7BBC4"/>
<path d="M1624.6 72.5C1625.99 72.5 1627.1 71.3807 1627.1 70C1627.1 68.6193 1625.99 67.5 1624.6 67.5C1623.22 67.5 1622.1 68.6193 1622.1 70C1622.1 71.3807 1623.22 72.5 1624.6 72.5Z" stroke="#B7BBC4"/>
<path d="M1648.6 73C1650.26 73 1651.6 71.6569 1651.6 70C1651.6 68.3431 1650.26 67 1648.6 67C1646.95 67 1645.6 68.3431 1645.6 70C1645.6 71.6569 1646.95 73 1648.6 73Z" fill="#B7BBC4"/>
<path d="M1672.6 72.5C1673.99 72.5 1675.1 71.3807 1675.1 70C1675.1 68.6193 1673.99 67.5 1672.6 67.5C1671.22 67.5 1670.1 68.6193 1670.1 70C1670.1 71.3807 1671.22 72.5 1672.6 72.5Z" stroke="#B7BBC4"/>
<path d="M1696.6 73C1698.26 73 1699.6 71.6569 1699.6 70C1699.6 68.3431 1698.26 67 1696.6 67C1694.95 67 1693.6 68.3431 1693.6 70C1693.6 71.6569 1694.95 73 1696.6 73Z" fill="#B7BBC4"/>
<path d="M1720.6 72.5C1721.99 72.5 1723.1 71.3807 1723.1 70C1723.1 68.6193 1721.99 67.5 1720.6 67.5C1719.22 67.5 1718.1 68.6193 1718.1 70C1718.1 71.3807 1719.22 72.5 1720.6 72.5Z" stroke="#B7BBC4"/>
<path d="M1744.6 73C1746.26 73 1747.6 71.6569 1747.6 70C1747.6 68.3431 1746.26 67 1744.6 67C1742.95 67 1741.6 68.3431 1741.6 70C1741.6 71.6569 1742.95 73 1744.6 73Z" fill="#B7BBC4"/>
<path d="M1600.6 99C1602.26 99 1603.6 97.6569 1603.6 96C1603.6 94.3431 1602.26 93 1600.6 93C1598.95 93 1597.6 94.3431 1597.6 96C1597.6 97.6569 1598.95 99 1600.6 99Z" fill="#B7BBC4"/>
<path d="M1624.6 98.5C1625.99 98.5 1627.1 97.3807 1627.1 96C1627.1 94.6193 1625.99 93.5 1624.6 93.5C1623.22 93.5 1622.1 94.6193 1622.1 96C1622.1 97.3807 1623.22 98.5 1624.6 98.5Z" stroke="#B7BBC4"/>
<path d="M1648.6 99C1650.26 99 1651.6 97.6569 1651.6 96C1651.6 94.3431 1650.26 93 1648.6 93C1646.95 93 1645.6 94.3431 1645.6 96C1645.6 97.6569 1646.95 99 1648.6 99Z" fill="#B7BBC4"/>
<path d="M1672.6 98.5C1673.99 98.5 1675.1 97.3807 1675.1 96C1675.1 94.6193 1673.99 93.5 1672.6 93.5C1671.22 93.5 1670.1 94.6193 1670.1 96C1670.1 97.3807 1671.22 98.5 1672.6 98.5Z" stroke="#B7BBC4"/>
<path d="M1696.6 99C1698.26 99 1699.6 97.6569 1699.6 96C1699.6 94.3431 1698.26 93 1696.6 93C1694.95 93 1693.6 94.3431 1693.6 96C1693.6 97.6569 1694.95 99 1696.6 99Z" fill="#B7BBC4"/>
<path d="M1720.6 98.5C1721.99 98.5 1723.1 97.3807 1723.1 96C1723.1 94.6193 1721.99 93.5 1720.6 93.5C1719.22 93.5 1718.1 94.6193 1718.1 96C1718.1 97.3807 1719.22 98.5 1720.6 98.5Z" stroke="#B7BBC4"/>
<path d="M1744.6 99C1746.26 99 1747.6 97.6569 1747.6 96C1747.6 94.3431 1746.26 93 1744.6 93C1742.95 93 1741.6 94.3431 1741.6 96C1741.6 97.6569 1742.95 99 1744.6 99Z" fill="#B7BBC4"/>
<path d="M1600.6 125C1602.26 125 1603.6 123.657 1603.6 122C1603.6 120.343 1602.26 119 1600.6 119C1598.95 119 1597.6 120.343 1597.6 122C1597.6 123.657 1598.95 125 1600.6 125Z" fill="#B7BBC4"/>
<path d="M1624.6 124.5C1625.99 124.5 1627.1 123.381 1627.1 122C1627.1 120.619 1625.99 119.5 1624.6 119.5C1623.22 119.5 1622.1 120.619 1622.1 122C1622.1 123.381 1623.22 124.5 1624.6 124.5Z" stroke="#B7BBC4"/>
<path d="M1648.6 125C1650.26 125 1651.6 123.657 1651.6 122C1651.6 120.343 1650.26 119 1648.6 119C1646.95 119 1645.6 120.343 1645.6 122C1645.6 123.657 1646.95 125 1648.6 125Z" fill="#B7BBC4"/>
<path d="M1672.6 124.5C1673.99 124.5 1675.1 123.381 1675.1 122C1675.1 120.619 1673.99 119.5 1672.6 119.5C1671.22 119.5 1670.1 120.619 1670.1 122C1670.1 123.381 1671.22 124.5 1672.6 124.5Z" stroke="#B7BBC4"/>
<path d="M1696.6 125C1698.26 125 1699.6 123.657 1699.6 122C1699.6 120.343 1698.26 119 1696.6 119C1694.95 119 1693.6 120.343 1693.6 122C1693.6 123.657 1694.95 125 1696.6 125Z" fill="#B7BBC4"/>
<path d="M1720.6 124.5C1721.99 124.5 1723.1 123.381 1723.1 122C1723.1 120.619 1721.99 119.5 1720.6 119.5C1719.22 119.5 1718.1 120.619 1718.1 122C1718.1 123.381 1719.22 124.5 1720.6 124.5Z" stroke="#B7BBC4"/>
<path d="M1744.6 125C1746.26 125 1747.6 123.657 1747.6 122C1747.6 120.343 1746.26 119 1744.6 119C1742.95 119 1741.6 120.343 1741.6 122C1741.6 123.657 1742.95 125 1744.6 125Z" fill="#B7BBC4"/>
<path d="M1600.6 151C1602.26 151 1603.6 149.657 1603.6 148C1603.6 146.343 1602.26 145 1600.6 145C1598.95 145 1597.6 146.343 1597.6 148C1597.6 149.657 1598.95 151 1600.6 151Z" fill="#B7BBC4"/>
<path d="M1624.6 150.5C1625.99 150.5 1627.1 149.381 1627.1 148C1627.1 146.619 1625.99 145.5 1624.6 145.5C1623.22 145.5 1622.1 146.619 1622.1 148C1622.1 149.381 1623.22 150.5 1624.6 150.5Z" stroke="#B7BBC4"/>
<path d="M1648.6 151C1650.26 151 1651.6 149.657 1651.6 148C1651.6 146.343 1650.26 145 1648.6 145C1646.95 145 1645.6 146.343 1645.6 148C1645.6 149.657 1646.95 151 1648.6 151Z" fill="#B7BBC4"/>
<path d="M1672.6 150.5C1673.99 150.5 1675.1 149.381 1675.1 148C1675.1 146.619 1673.99 145.5 1672.6 145.5C1671.22 145.5 1670.1 146.619 1670.1 148C1670.1 149.381 1671.22 150.5 1672.6 150.5Z" stroke="#B7BBC4"/>
<path d="M1696.6 151C1698.26 151 1699.6 149.657 1699.6 148C1699.6 146.343 1698.26 145 1696.6 145C1694.95 145 1693.6 146.343 1693.6 148C1693.6 149.657 1694.95 151 1696.6 151Z" fill="#B7BBC4"/>
<path d="M1720.6 150.5C1721.99 150.5 1723.1 149.381 1723.1 148C1723.1 146.619 1721.99 145.5 1720.6 145.5C1719.22 145.5 1718.1 146.619 1718.1 148C1718.1 149.381 1719.22 150.5 1720.6 150.5Z" stroke="#B7BBC4"/>
<path d="M1744.6 151C1746.26 151 1747.6 149.657 1747.6 148C1747.6 146.343 1746.26 145 1744.6 145C1742.95 145 1741.6 146.343 1741.6 148C1741.6 149.657 1742.95 151 1744.6 151Z" fill="#B7BBC4"/>
<path d="M1600.6 177C1602.26 177 1603.6 175.657 1603.6 174C1603.6 172.343 1602.26 171 1600.6 171C1598.95 171 1597.6 172.343 1597.6 174C1597.6 175.657 1598.95 177 1600.6 177Z" fill="#B7BBC4"/>
<path d="M1624.6 176.5C1625.99 176.5 1627.1 175.381 1627.1 174C1627.1 172.619 1625.99 171.5 1624.6 171.5C1623.22 171.5 1622.1 172.619 1622.1 174C1622.1 175.381 1623.22 176.5 1624.6 176.5Z" stroke="#B7BBC4"/>
<path d="M1648.6 177C1650.26 177 1651.6 175.657 1651.6 174C1651.6 172.343 1650.26 171 1648.6 171C1646.95 171 1645.6 172.343 1645.6 174C1645.6 175.657 1646.95 177 1648.6 177Z" fill="#B7BBC4"/>
<path d="M1672.6 176.5C1673.99 176.5 1675.1 175.381 1675.1 174C1675.1 172.619 1673.99 171.5 1672.6 171.5C1671.22 171.5 1670.1 172.619 1670.1 174C1670.1 175.381 1671.22 176.5 1672.6 176.5Z" stroke="#B7BBC4"/>
<path d="M1696.6 177C1698.26 177 1699.6 175.657 1699.6 174C1699.6 172.343 1698.26 171 1696.6 171C1694.95 171 1693.6 172.343 1693.6 174C1693.6 175.657 1694.95 177 1696.6 177Z" fill="#B7BBC4"/>
<path d="M1720.6 176.5C1721.99 176.5 1723.1 175.381 1723.1 174C1723.1 172.619 1721.99 171.5 1720.6 171.5C1719.22 171.5 1718.1 172.619 1718.1 174C1718.1 175.381 1719.22 176.5 1720.6 176.5Z" stroke="#B7BBC4"/>
<path d="M1744.6 177C1746.26 177 1747.6 175.657 1747.6 174C1747.6 172.343 1746.26 171 1744.6 171C1742.95 171 1741.6 172.343 1741.6 174C1741.6 175.657 1742.95 177 1744.6 177Z" fill="#B7BBC4"/>
</g>
<defs>
<clipPath id="clip0_1_447">
<rect width="155" height="167" fill="white" transform="translate(97.6055 46)"/>
</clipPath>
<clipPath id="clip1_1_447">
<rect width="155" height="167" fill="white" transform="translate(1597.6 15)"/>
</clipPath>
</defs>
</svg>
