<svg width="162" height="32" viewBox="0 0 162 32" fill="none" xmlns="http://www.w3.org/2000/svg">
<circle cx="15.6652" cy="16.1108" r="15.6652" fill="#FFD245"/>
<mask id="mask0_1243_5346" style="mask-type:alpha" maskUnits="userSpaceOnUse" x="0" y="0" width="32" height="32">
<circle cx="15.6652" cy="16.1108" r="15.6652" fill="#FFD245"/>
</mask>
<g mask="url(#mask0_1243_5346)">
<circle cx="18.9006" cy="9.78022" r="15.6652" fill="#FFE486"/>
<circle cx="27.7873" cy="9.78022" r="15.6652" fill="#FF8718"/>
</g>
<circle cx="24.1841" cy="24.6302" r="6.14603" fill="#1642B9" stroke="white" stroke-width="2"/>
<path d="M46.6664 24.3456C48.0164 24.3456 49.0664 24.1039 49.8164 23.6206C50.5664 23.1206 50.9414 22.3206 50.9414 21.2206C50.9414 20.5872 50.8164 20.0622 50.5664 19.6456C50.3331 19.2122 50.0164 18.8539 49.6164 18.5706C49.2164 18.2706 48.7581 18.0206 48.2414 17.8206C47.7247 17.6039 47.1831 17.3789 46.6164 17.1456C45.8997 16.8622 45.2581 16.5706 44.6914 16.2706C44.1247 15.9706 43.6414 15.6372 43.2414 15.2706C42.8414 14.8872 42.5331 14.4539 42.3164 13.9706C42.1164 13.4872 42.0164 12.9206 42.0164 12.2706C42.0164 10.7872 42.5081 9.66222 43.4914 8.89556C44.4747 8.12889 45.8414 7.74556 47.5914 7.74556C48.0581 7.74556 48.5164 7.77889 48.9664 7.84556C49.4164 7.91222 49.8331 8.00389 50.2164 8.12056C50.6164 8.22056 50.9747 8.33722 51.2914 8.47056C51.6247 8.60389 51.8997 8.74556 52.1164 8.89556L51.5164 10.3206C51.0331 9.98722 50.4414 9.72056 49.7414 9.52056C49.0581 9.32056 48.3164 9.22056 47.5164 9.22056C46.9664 9.22056 46.4581 9.27889 45.9914 9.39556C45.5414 9.49556 45.1497 9.67056 44.8164 9.92056C44.4831 10.1539 44.2164 10.4539 44.0164 10.8206C43.8331 11.1872 43.7414 11.6289 43.7414 12.1456C43.7414 12.6789 43.8414 13.1289 44.0414 13.4956C44.2414 13.8622 44.5164 14.1789 44.8664 14.4456C45.2331 14.7122 45.6581 14.9539 46.1414 15.1706C46.6247 15.3872 47.1497 15.6122 47.7164 15.8456C48.3997 16.1289 49.0414 16.4122 49.6414 16.6956C50.2581 16.9789 50.7914 17.3122 51.2414 17.6956C51.6914 18.0789 52.0497 18.5456 52.3164 19.0956C52.5831 19.6456 52.7164 20.3206 52.7164 21.1206C52.7164 22.6872 52.1664 23.8622 51.0664 24.6456C49.9831 25.4289 48.5081 25.8206 46.6414 25.8206C45.9747 25.8206 45.3664 25.7789 44.8164 25.6956C44.2664 25.6122 43.7747 25.5122 43.3414 25.3956C42.9081 25.2622 42.5414 25.1289 42.2414 24.9956C41.9414 24.8622 41.7081 24.7456 41.5414 24.6456L42.0914 23.1706C42.2581 23.2706 42.4831 23.3872 42.7664 23.5206C43.0497 23.6539 43.3831 23.7872 43.7664 23.9206C44.1497 24.0372 44.5831 24.1372 45.0664 24.2206C45.5497 24.3039 46.0831 24.3456 46.6664 24.3456ZM59.8314 24.2706C60.4648 24.2706 61.0148 24.2539 61.4814 24.2206C61.9648 24.1706 62.3731 24.1122 62.7064 24.0456V19.4956C62.5231 19.4122 62.2314 19.3289 61.8314 19.2456C61.4314 19.1456 60.8814 19.0956 60.1814 19.0956C59.7814 19.0956 59.3648 19.1289 58.9314 19.1956C58.4981 19.2456 58.0981 19.3706 57.7314 19.5706C57.3648 19.7539 57.0648 20.0122 56.8314 20.3456C56.5981 20.6789 56.4814 21.1206 56.4814 21.6706C56.4814 22.1539 56.5564 22.5622 56.7064 22.8956C56.8731 23.2289 57.0981 23.4956 57.3814 23.6956C57.6814 23.8956 58.0314 24.0456 58.4314 24.1456C58.8481 24.2289 59.3148 24.2706 59.8314 24.2706ZM59.6814 12.2206C60.5314 12.2206 61.2481 12.3456 61.8314 12.5956C62.4314 12.8289 62.9148 13.1622 63.2814 13.5956C63.6481 14.0122 63.9148 14.5122 64.0814 15.0956C64.2481 15.6789 64.3314 16.3122 64.3314 16.9956V25.1456C64.1648 25.1956 63.9231 25.2539 63.6064 25.3206C63.2898 25.3706 62.9231 25.4289 62.5064 25.4956C62.0898 25.5622 61.6231 25.6122 61.1064 25.6456C60.6064 25.6956 60.0898 25.7206 59.5564 25.7206C58.8731 25.7206 58.2398 25.6456 57.6564 25.4956C57.0898 25.3456 56.5898 25.1122 56.1564 24.7956C55.7398 24.4622 55.4064 24.0456 55.1564 23.5456C54.9231 23.0289 54.8064 22.4039 54.8064 21.6706C54.8064 20.9706 54.9398 20.3706 55.2064 19.8706C55.4731 19.3706 55.8481 18.9622 56.3314 18.6456C56.8148 18.3122 57.3898 18.0706 58.0564 17.9206C58.7231 17.7706 59.4481 17.6956 60.2314 17.6956C60.4648 17.6956 60.7064 17.7122 60.9564 17.7456C61.2231 17.7622 61.4731 17.7956 61.7064 17.8456C61.9564 17.8789 62.1648 17.9206 62.3314 17.9706C62.5148 18.0039 62.6398 18.0372 62.7064 18.0706V17.2706C62.7064 16.8206 62.6731 16.3872 62.6064 15.9706C62.5398 15.5372 62.3898 15.1539 62.1564 14.8206C61.9398 14.4706 61.6231 14.1956 61.2064 13.9956C60.8064 13.7789 60.2731 13.6706 59.6064 13.6706C58.6564 13.6706 57.9481 13.7372 57.4814 13.8706C57.0148 14.0039 56.6731 14.1122 56.4564 14.1956L56.2314 12.7706C56.5148 12.6372 56.9481 12.5122 57.5314 12.3956C58.1314 12.2789 58.8481 12.2206 59.6814 12.2206ZM72.5512 24.2706C73.1845 24.2706 73.7345 24.2539 74.2012 24.2206C74.6845 24.1706 75.0928 24.1122 75.4262 24.0456V19.4956C75.2428 19.4122 74.9512 19.3289 74.5512 19.2456C74.1512 19.1456 73.6012 19.0956 72.9012 19.0956C72.5012 19.0956 72.0845 19.1289 71.6512 19.1956C71.2178 19.2456 70.8178 19.3706 70.4512 19.5706C70.0845 19.7539 69.7845 20.0122 69.5512 20.3456C69.3178 20.6789 69.2012 21.1206 69.2012 21.6706C69.2012 22.1539 69.2762 22.5622 69.4262 22.8956C69.5928 23.2289 69.8178 23.4956 70.1012 23.6956C70.4012 23.8956 70.7512 24.0456 71.1512 24.1456C71.5678 24.2289 72.0345 24.2706 72.5512 24.2706ZM72.4012 12.2206C73.2512 12.2206 73.9678 12.3456 74.5512 12.5956C75.1512 12.8289 75.6345 13.1622 76.0012 13.5956C76.3678 14.0122 76.6345 14.5122 76.8012 15.0956C76.9678 15.6789 77.0512 16.3122 77.0512 16.9956V25.1456C76.8845 25.1956 76.6428 25.2539 76.3262 25.3206C76.0095 25.3706 75.6428 25.4289 75.2262 25.4956C74.8095 25.5622 74.3428 25.6122 73.8262 25.6456C73.3262 25.6956 72.8095 25.7206 72.2762 25.7206C71.5928 25.7206 70.9595 25.6456 70.3762 25.4956C69.8095 25.3456 69.3095 25.1122 68.8762 24.7956C68.4595 24.4622 68.1262 24.0456 67.8762 23.5456C67.6428 23.0289 67.5262 22.4039 67.5262 21.6706C67.5262 20.9706 67.6595 20.3706 67.9262 19.8706C68.1928 19.3706 68.5678 18.9622 69.0512 18.6456C69.5345 18.3122 70.1095 18.0706 70.7762 17.9206C71.4428 17.7706 72.1678 17.6956 72.9512 17.6956C73.1845 17.6956 73.4262 17.7122 73.6762 17.7456C73.9428 17.7622 74.1928 17.7956 74.4262 17.8456C74.6762 17.8789 74.8845 17.9206 75.0512 17.9706C75.2345 18.0039 75.3595 18.0372 75.4262 18.0706V17.2706C75.4262 16.8206 75.3928 16.3872 75.3262 15.9706C75.2595 15.5372 75.1095 15.1539 74.8762 14.8206C74.6595 14.4706 74.3428 14.1956 73.9262 13.9956C73.5262 13.7789 72.9928 13.6706 72.3262 13.6706C71.3762 13.6706 70.6678 13.7372 70.2012 13.8706C69.7345 14.0039 69.3928 14.1122 69.1762 14.1956L68.9512 12.7706C69.2345 12.6372 69.6678 12.5122 70.2512 12.3956C70.8512 12.2789 71.5678 12.2206 72.4012 12.2206ZM83.8459 24.2956C84.7792 24.2956 85.5459 24.1456 86.1459 23.8456C86.7626 23.5289 87.0709 23.0039 87.0709 22.2706C87.0709 21.9206 87.0126 21.6206 86.8959 21.3706C86.7959 21.1206 86.6209 20.8956 86.3709 20.6956C86.1209 20.4956 85.7876 20.3039 85.3709 20.1206C84.9709 19.9372 84.4709 19.7206 83.8709 19.4706C83.3876 19.2706 82.9292 19.0706 82.4959 18.8706C82.0626 18.6539 81.6792 18.4122 81.3459 18.1456C81.0126 17.8622 80.7459 17.5289 80.5459 17.1456C80.3459 16.7622 80.2459 16.2956 80.2459 15.7456C80.2459 14.6956 80.6376 13.8456 81.4209 13.1956C82.2209 12.5456 83.3126 12.2206 84.6959 12.2206C85.5792 12.2206 86.3042 12.2956 86.8709 12.4456C87.4542 12.5956 87.8626 12.7289 88.0959 12.8456L87.7209 14.2956C87.5209 14.1956 87.1792 14.0622 86.6959 13.8956C86.2292 13.7289 85.5376 13.6456 84.6209 13.6456C84.2542 13.6456 83.9042 13.6872 83.5709 13.7706C83.2542 13.8372 82.9709 13.9539 82.7209 14.1206C82.4709 14.2706 82.2709 14.4706 82.1209 14.7206C81.9709 14.9539 81.8959 15.2456 81.8959 15.5956C81.8959 15.9456 81.9626 16.2456 82.0959 16.4956C82.2292 16.7456 82.4209 16.9706 82.6709 17.1706C82.9376 17.3539 83.2542 17.5289 83.6209 17.6956C84.0042 17.8622 84.4376 18.0456 84.9209 18.2456C85.4209 18.4456 85.8959 18.6539 86.3459 18.8706C86.8126 19.0706 87.2209 19.3206 87.5709 19.6206C87.9209 19.9039 88.2042 20.2539 88.4209 20.6706C88.6376 21.0706 88.7459 21.5789 88.7459 22.1956C88.7459 23.3622 88.3042 24.2456 87.4209 24.8456C86.5542 25.4456 85.3626 25.7456 83.8459 25.7456C82.7126 25.7456 81.8459 25.6456 81.2459 25.4456C80.6459 25.2622 80.2459 25.1206 80.0459 25.0206L80.4709 23.5456C80.5209 23.5789 80.6292 23.6372 80.7959 23.7206C80.9626 23.7872 81.1876 23.8706 81.4709 23.9706C81.7542 24.0539 82.0876 24.1289 82.4709 24.1956C82.8709 24.2622 83.3292 24.2956 83.8459 24.2956ZM99.5143 25.8206C98.2143 25.8206 97.0476 25.6206 96.0143 25.2206C94.9809 24.8206 94.1059 24.2372 93.3893 23.4706C92.6726 22.6872 92.1226 21.7372 91.7393 20.6206C91.3559 19.5039 91.1643 18.2206 91.1643 16.7706C91.1643 15.3206 91.3809 14.0372 91.8143 12.9206C92.2643 11.8039 92.8726 10.8622 93.6393 10.0956C94.4059 9.31222 95.3059 8.72056 96.3393 8.32056C97.3726 7.92056 98.4809 7.72056 99.6643 7.72056C100.381 7.72056 101.031 7.77889 101.614 7.89556C102.198 7.99556 102.706 8.11222 103.139 8.24556C103.573 8.37889 103.931 8.52056 104.214 8.67056C104.498 8.82056 104.698 8.92889 104.814 8.99556L103.889 11.5706C103.489 11.3206 102.914 11.0872 102.164 10.8706C101.431 10.6372 100.631 10.5206 99.7643 10.5206C99.0143 10.5206 98.3143 10.6539 97.6643 10.9206C97.0143 11.1706 96.4476 11.5539 95.9643 12.0706C95.4976 12.5872 95.1309 13.2372 94.8643 14.0206C94.5976 14.8039 94.4643 15.7122 94.4643 16.7456C94.4643 17.6622 94.5643 18.5039 94.7643 19.2706C94.9809 20.0372 95.3059 20.7039 95.7393 21.2706C96.1726 21.8206 96.7226 22.2539 97.3893 22.5706C98.0559 22.8706 98.8559 23.0206 99.7893 23.0206C100.906 23.0206 101.814 22.9122 102.514 22.6956C103.214 22.4622 103.756 22.2456 104.139 22.0456L104.989 24.6206C104.789 24.7539 104.514 24.8872 104.164 25.0206C103.831 25.1539 103.431 25.2872 102.964 25.4206C102.498 25.5372 101.973 25.6289 101.389 25.6956C100.806 25.7789 100.181 25.8206 99.5143 25.8206ZM112.207 23.3206C113.14 23.3206 113.848 23.2706 114.332 23.1706V19.8206C114.165 19.7706 113.923 19.7206 113.607 19.6706C113.29 19.6206 112.94 19.5956 112.557 19.5956C112.223 19.5956 111.882 19.6206 111.532 19.6706C111.198 19.7206 110.89 19.8122 110.607 19.9456C110.34 20.0789 110.123 20.2706 109.957 20.5206C109.79 20.7539 109.707 21.0539 109.707 21.4206C109.707 22.1372 109.932 22.6372 110.382 22.9206C110.832 23.1872 111.44 23.3206 112.207 23.3206ZM111.957 12.0456C112.957 12.0456 113.798 12.1706 114.482 12.4206C115.165 12.6706 115.707 13.0206 116.107 13.4706C116.523 13.9206 116.815 14.4706 116.982 15.1206C117.165 15.7539 117.257 16.4539 117.257 17.2206V25.1456C116.79 25.2456 116.082 25.3622 115.132 25.4956C114.198 25.6456 113.14 25.7206 111.957 25.7206C111.173 25.7206 110.457 25.6456 109.807 25.4956C109.157 25.3456 108.598 25.1039 108.132 24.7706C107.682 24.4372 107.323 24.0039 107.057 23.4706C106.807 22.9372 106.682 22.2789 106.682 21.4956C106.682 20.7456 106.823 20.1122 107.107 19.5956C107.407 19.0789 107.807 18.6622 108.307 18.3456C108.807 18.0122 109.382 17.7789 110.032 17.6456C110.698 17.4956 111.39 17.4206 112.107 17.4206C112.44 17.4206 112.79 17.4456 113.157 17.4956C113.523 17.5289 113.915 17.5956 114.332 17.6956V17.1956C114.332 16.8456 114.29 16.5122 114.207 16.1956C114.123 15.8789 113.973 15.6039 113.757 15.3706C113.557 15.1206 113.282 14.9289 112.932 14.7956C112.598 14.6622 112.173 14.5956 111.657 14.5956C110.957 14.5956 110.315 14.6456 109.732 14.7456C109.148 14.8456 108.673 14.9622 108.307 15.0956L107.932 12.6456C108.315 12.5122 108.873 12.3789 109.607 12.2456C110.34 12.1122 111.123 12.0456 111.957 12.0456ZM120.961 12.7956C121.544 12.6289 122.303 12.4706 123.236 12.3206C124.169 12.1706 125.203 12.0956 126.336 12.0956C127.403 12.0956 128.294 12.2456 129.011 12.5456C129.728 12.8289 130.294 13.2372 130.711 13.7706C131.144 14.2872 131.444 14.9206 131.611 15.6706C131.794 16.4039 131.886 17.2122 131.886 18.0956V25.4456H128.861V18.5706C128.861 17.8706 128.811 17.2789 128.711 16.7956C128.628 16.2956 128.478 15.8956 128.261 15.5956C128.061 15.2789 127.778 15.0539 127.411 14.9206C127.061 14.7706 126.628 14.6956 126.111 14.6956C125.728 14.6956 125.328 14.7206 124.911 14.7706C124.494 14.8206 124.186 14.8622 123.986 14.8956V25.4456H120.961V12.7956ZM137.96 18.8706C137.96 20.2039 138.277 21.2539 138.91 22.0206C139.543 22.7706 140.418 23.1456 141.535 23.1456C142.018 23.1456 142.427 23.1289 142.76 23.0956C143.11 23.0456 143.393 22.9956 143.61 22.9456V15.4456C143.343 15.2622 142.985 15.0956 142.535 14.9456C142.102 14.7789 141.635 14.6956 141.135 14.6956C140.035 14.6956 139.227 15.0706 138.71 15.8206C138.21 16.5706 137.96 17.5872 137.96 18.8706ZM146.635 25.0456C146.035 25.2289 145.277 25.3956 144.36 25.5456C143.46 25.6956 142.51 25.7706 141.51 25.7706C140.477 25.7706 139.552 25.6122 138.735 25.2956C137.918 24.9789 137.218 24.5289 136.635 23.9456C136.068 23.3456 135.627 22.6289 135.31 21.7956C135.01 20.9456 134.86 19.9956 134.86 18.9456C134.86 17.9122 134.985 16.9789 135.235 16.1456C135.502 15.2956 135.885 14.5706 136.385 13.9706C136.885 13.3706 137.493 12.9122 138.21 12.5956C138.927 12.2622 139.752 12.0956 140.685 12.0956C141.318 12.0956 141.877 12.1706 142.36 12.3206C142.843 12.4706 143.26 12.6372 143.61 12.8206V6.54556L146.635 6.04556V25.0456ZM161.153 12.3706C159.803 17.3372 158.236 21.8372 156.453 25.8706C156.119 26.6206 155.778 27.2622 155.428 27.7956C155.078 28.3289 154.686 28.7706 154.253 29.1206C153.819 29.4706 153.336 29.7206 152.803 29.8706C152.269 30.0372 151.653 30.1206 150.953 30.1206C150.486 30.1206 150.019 30.0706 149.553 29.9706C149.103 29.8706 148.761 29.7622 148.528 29.6456L149.078 27.2206C149.678 27.4539 150.269 27.5706 150.853 27.5706C151.636 27.5706 152.244 27.3789 152.678 26.9956C153.128 26.6289 153.519 26.0539 153.853 25.2706C152.903 23.4372 151.986 21.4372 151.103 19.2706C150.236 17.1039 149.461 14.8039 148.778 12.3706H152.003C152.169 13.0706 152.369 13.8289 152.603 14.6456C152.853 15.4622 153.119 16.2956 153.403 17.1456C153.686 17.9789 153.986 18.8122 154.303 19.6456C154.619 20.4789 154.936 21.2539 155.253 21.9706C155.786 20.4872 156.286 18.9122 156.753 17.2456C157.219 15.5622 157.644 13.9372 158.028 12.3706H161.153Z" fill="black"/>
</svg>
