<svg width="151" height="32" viewBox="0 0 151 32" fill="none" xmlns="http://www.w3.org/2000/svg">
<circle cx="16.3693" cy="16.2756" r="15.6652" fill="#FFD245"/>
<mask id="mask0_1311_530" style="mask-type:alpha" maskUnits="userSpaceOnUse" x="0" y="0" width="33" height="32">
<circle cx="16.3693" cy="16.2756" r="15.6652" fill="#FFD245"/>
</mask>
<g mask="url(#mask0_1311_530)">
<circle cx="19.6047" cy="9.94502" r="15.6652" fill="#FFE486"/>
<circle cx="28.4914" cy="9.94502" r="15.6652" fill="#FF8718"/>
</g>
<circle cx="24.8882" cy="24.795" r="6.14603" fill="white" stroke="#001C68" stroke-width="2"/>
<path d="M47.3705 24.5104C48.7205 24.5104 49.7705 24.2687 50.5205 23.7854C51.2705 23.2854 51.6455 22.4854 51.6455 21.3854C51.6455 20.752 51.5205 20.227 51.2705 19.8104C51.0372 19.377 50.7205 19.0187 50.3205 18.7354C49.9205 18.4354 49.4622 18.1854 48.9455 17.9854C48.4288 17.7687 47.8872 17.5437 47.3205 17.3104C46.6038 17.027 45.9622 16.7354 45.3955 16.4354C44.8288 16.1354 44.3455 15.802 43.9455 15.4354C43.5455 15.052 43.2372 14.6187 43.0205 14.1354C42.8205 13.652 42.7205 13.0854 42.7205 12.4354C42.7205 10.952 43.2122 9.82702 44.1955 9.06035C45.1788 8.29368 46.5455 7.91035 48.2955 7.91035C48.7622 7.91035 49.2205 7.94368 49.6705 8.01035C50.1205 8.07702 50.5372 8.16868 50.9205 8.28535C51.3205 8.38535 51.6788 8.50202 51.9955 8.63535C52.3288 8.76868 52.6038 8.91035 52.8205 9.06035L52.2205 10.4854C51.7372 10.152 51.1455 9.88535 50.4455 9.68535C49.7622 9.48535 49.0205 9.38535 48.2205 9.38535C47.6705 9.38535 47.1622 9.44368 46.6955 9.56035C46.2455 9.66035 45.8538 9.83535 45.5205 10.0854C45.1872 10.3187 44.9205 10.6187 44.7205 10.9854C44.5372 11.352 44.4455 11.7937 44.4455 12.3104C44.4455 12.8437 44.5455 13.2937 44.7455 13.6604C44.9455 14.027 45.2205 14.3437 45.5705 14.6104C45.9372 14.877 46.3622 15.1187 46.8455 15.3354C47.3288 15.552 47.8538 15.777 48.4205 16.0104C49.1038 16.2937 49.7455 16.577 50.3455 16.8604C50.9622 17.1437 51.4955 17.477 51.9455 17.8604C52.3955 18.2437 52.7538 18.7104 53.0205 19.2604C53.2872 19.8104 53.4205 20.4854 53.4205 21.2854C53.4205 22.852 52.8705 24.027 51.7705 24.8104C50.6872 25.5937 49.2122 25.9854 47.3455 25.9854C46.6788 25.9854 46.0705 25.9437 45.5205 25.8604C44.9705 25.777 44.4788 25.677 44.0455 25.5604C43.6122 25.427 43.2455 25.2937 42.9455 25.1604C42.6455 25.027 42.4122 24.9104 42.2455 24.8104L42.7955 23.3354C42.9622 23.4354 43.1872 23.552 43.4705 23.6854C43.7538 23.8187 44.0872 23.952 44.4705 24.0854C44.8538 24.202 45.2872 24.302 45.7705 24.3854C46.2538 24.4687 46.7872 24.5104 47.3705 24.5104ZM60.5355 24.4354C61.1689 24.4354 61.7189 24.4187 62.1855 24.3854C62.6689 24.3354 63.0772 24.277 63.4105 24.2104V19.6604C63.2272 19.577 62.9355 19.4937 62.5355 19.4104C62.1355 19.3104 61.5855 19.2604 60.8855 19.2604C60.4855 19.2604 60.0689 19.2937 59.6355 19.3604C59.2022 19.4104 58.8022 19.5354 58.4355 19.7354C58.0689 19.9187 57.7689 20.177 57.5355 20.5104C57.3022 20.8437 57.1855 21.2854 57.1855 21.8354C57.1855 22.3187 57.2605 22.727 57.4105 23.0604C57.5772 23.3937 57.8022 23.6604 58.0855 23.8604C58.3855 24.0604 58.7355 24.2104 59.1355 24.3104C59.5522 24.3937 60.0189 24.4354 60.5355 24.4354ZM60.3855 12.3854C61.2355 12.3854 61.9522 12.5104 62.5355 12.7604C63.1355 12.9937 63.6189 13.327 63.9855 13.7604C64.3522 14.177 64.6189 14.677 64.7855 15.2604C64.9522 15.8437 65.0355 16.477 65.0355 17.1604V25.3104C64.8689 25.3604 64.6272 25.4187 64.3105 25.4854C63.9939 25.5354 63.6272 25.5937 63.2105 25.6604C62.7939 25.727 62.3272 25.777 61.8105 25.8104C61.3105 25.8604 60.7939 25.8854 60.2605 25.8854C59.5772 25.8854 58.9439 25.8104 58.3605 25.6604C57.7939 25.5104 57.2939 25.277 56.8605 24.9604C56.4439 24.627 56.1105 24.2104 55.8605 23.7104C55.6272 23.1937 55.5105 22.5687 55.5105 21.8354C55.5105 21.1354 55.6439 20.5354 55.9105 20.0354C56.1772 19.5354 56.5522 19.127 57.0355 18.8104C57.5189 18.477 58.0939 18.2354 58.7605 18.0854C59.4272 17.9354 60.1522 17.8604 60.9355 17.8604C61.1689 17.8604 61.4105 17.877 61.6605 17.9104C61.9272 17.927 62.1772 17.9604 62.4105 18.0104C62.6605 18.0437 62.8689 18.0854 63.0355 18.1354C63.2189 18.1687 63.3439 18.202 63.4105 18.2354V17.4354C63.4105 16.9854 63.3772 16.552 63.3105 16.1354C63.2439 15.702 63.0939 15.3187 62.8605 14.9854C62.6439 14.6354 62.3272 14.3604 61.9105 14.1604C61.5105 13.9437 60.9772 13.8354 60.3105 13.8354C59.3605 13.8354 58.6522 13.902 58.1855 14.0354C57.7189 14.1687 57.3772 14.277 57.1605 14.3604L56.9355 12.9354C57.2189 12.802 57.6522 12.677 58.2355 12.5604C58.8355 12.4437 59.5522 12.3854 60.3855 12.3854ZM71.8303 24.4604C72.7636 24.4604 73.5303 24.3104 74.1303 24.0104C74.7469 23.6937 75.0553 23.1687 75.0553 22.4354C75.0553 22.0854 74.9969 21.7854 74.8803 21.5354C74.7803 21.2854 74.6053 21.0604 74.3553 20.8604C74.1053 20.6604 73.7719 20.4687 73.3553 20.2854C72.9553 20.102 72.4553 19.8854 71.8553 19.6354C71.3719 19.4354 70.9136 19.2354 70.4803 19.0354C70.0469 18.8187 69.6636 18.577 69.3303 18.3104C68.9969 18.027 68.7303 17.6937 68.5303 17.3104C68.3303 16.927 68.2303 16.4604 68.2303 15.9104C68.2303 14.8604 68.6219 14.0104 69.4053 13.3604C70.2053 12.7104 71.2969 12.3854 72.6803 12.3854C73.5636 12.3854 74.2886 12.4604 74.8553 12.6104C75.4386 12.7604 75.8469 12.8937 76.0803 13.0104L75.7053 14.4604C75.5053 14.3604 75.1636 14.227 74.6803 14.0604C74.2136 13.8937 73.5219 13.8104 72.6053 13.8104C72.2386 13.8104 71.8886 13.852 71.5553 13.9354C71.2386 14.002 70.9553 14.1187 70.7053 14.2854C70.4553 14.4354 70.2553 14.6354 70.1053 14.8854C69.9553 15.1187 69.8803 15.4104 69.8803 15.7604C69.8803 16.1104 69.9469 16.4104 70.0803 16.6604C70.2136 16.9104 70.4053 17.1354 70.6553 17.3354C70.9219 17.5187 71.2386 17.6937 71.6053 17.8604C71.9886 18.027 72.4219 18.2104 72.9053 18.4104C73.4053 18.6104 73.8803 18.8187 74.3303 19.0354C74.7969 19.2354 75.2053 19.4854 75.5553 19.7854C75.9053 20.0687 76.1886 20.4187 76.4053 20.8354C76.6219 21.2354 76.7303 21.7437 76.7303 22.3604C76.7303 23.527 76.2886 24.4104 75.4053 25.0104C74.5386 25.6104 73.3469 25.9104 71.8303 25.9104C70.6969 25.9104 69.8303 25.8104 69.2303 25.6104C68.6303 25.427 68.2303 25.2854 68.0303 25.1854L68.4553 23.7104C68.5053 23.7437 68.6136 23.802 68.7803 23.8854C68.9469 23.952 69.1719 24.0354 69.4553 24.1354C69.7386 24.2187 70.0719 24.2937 70.4553 24.3604C70.8553 24.427 71.3136 24.4604 71.8303 24.4604ZM87.4986 25.9854C86.1986 25.9854 85.032 25.7854 83.9986 25.3854C82.9653 24.9854 82.0903 24.402 81.3736 23.6354C80.657 22.852 80.107 21.902 79.7236 20.7854C79.3403 19.6687 79.1486 18.3854 79.1486 16.9354C79.1486 15.4854 79.3653 14.202 79.7986 13.0854C80.2486 11.9687 80.857 11.027 81.6236 10.2604C82.3903 9.47702 83.2903 8.88535 84.3236 8.48535C85.357 8.08535 86.4653 7.88535 87.6486 7.88535C88.3653 7.88535 89.0153 7.94368 89.5986 8.06035C90.182 8.16035 90.6903 8.27702 91.1236 8.41035C91.557 8.54368 91.9153 8.68535 92.1986 8.83535C92.482 8.98535 92.682 9.09368 92.7986 9.16035L91.8736 11.7354C91.4736 11.4854 90.8986 11.252 90.1486 11.0354C89.4153 10.802 88.6153 10.6854 87.7486 10.6854C86.9986 10.6854 86.2986 10.8187 85.6486 11.0854C84.9986 11.3354 84.432 11.7187 83.9486 12.2354C83.482 12.752 83.1153 13.402 82.8486 14.1854C82.582 14.9687 82.4486 15.877 82.4486 16.9104C82.4486 17.827 82.5486 18.6687 82.7486 19.4354C82.9653 20.202 83.2903 20.8687 83.7236 21.4354C84.157 21.9854 84.707 22.4187 85.3736 22.7354C86.0403 23.0354 86.8403 23.1854 87.7736 23.1854C88.8903 23.1854 89.7986 23.077 90.4986 22.8604C91.1986 22.627 91.7403 22.4104 92.1236 22.2104L92.9736 24.7854C92.7736 24.9187 92.4986 25.052 92.1486 25.1854C91.8153 25.3187 91.4153 25.452 90.9486 25.5854C90.482 25.702 89.957 25.7937 89.3736 25.8604C88.7903 25.9437 88.1653 25.9854 87.4986 25.9854ZM100.191 23.4854C101.124 23.4854 101.833 23.4354 102.316 23.3354V19.9854C102.149 19.9354 101.908 19.8854 101.591 19.8354C101.274 19.7854 100.924 19.7604 100.541 19.7604C100.208 19.7604 99.866 19.7854 99.516 19.8354C99.1827 19.8854 98.8743 19.977 98.591 20.1104C98.3243 20.2437 98.1077 20.4354 97.941 20.6854C97.7743 20.9187 97.691 21.2187 97.691 21.5854C97.691 22.302 97.916 22.802 98.366 23.0854C98.816 23.352 99.4243 23.4854 100.191 23.4854ZM99.941 12.2104C100.941 12.2104 101.783 12.3354 102.466 12.5854C103.149 12.8354 103.691 13.1854 104.091 13.6354C104.508 14.0854 104.799 14.6354 104.966 15.2854C105.149 15.9187 105.241 16.6187 105.241 17.3854V25.3104C104.774 25.4104 104.066 25.527 103.116 25.6604C102.183 25.8104 101.124 25.8854 99.941 25.8854C99.1577 25.8854 98.441 25.8104 97.791 25.6604C97.141 25.5104 96.5827 25.2687 96.116 24.9354C95.666 24.602 95.3077 24.1687 95.041 23.6354C94.791 23.102 94.666 22.4437 94.666 21.6604C94.666 20.9104 94.8077 20.277 95.091 19.7604C95.391 19.2437 95.791 18.827 96.291 18.5104C96.791 18.177 97.366 17.9437 98.016 17.8104C98.6827 17.6604 99.3743 17.5854 100.091 17.5854C100.424 17.5854 100.774 17.6104 101.141 17.6604C101.508 17.6937 101.899 17.7604 102.316 17.8604V17.3604C102.316 17.0104 102.274 16.677 102.191 16.3604C102.108 16.0437 101.958 15.7687 101.741 15.5354C101.541 15.2854 101.266 15.0937 100.916 14.9604C100.583 14.827 100.158 14.7604 99.641 14.7604C98.941 14.7604 98.2993 14.8104 97.716 14.9104C97.1327 15.0104 96.6577 15.127 96.291 15.2604L95.916 12.8104C96.2993 12.677 96.8577 12.5437 97.591 12.4104C98.3243 12.277 99.1077 12.2104 99.941 12.2104ZM108.946 12.9604C109.529 12.7937 110.287 12.6354 111.221 12.4854C112.154 12.3354 113.187 12.2604 114.321 12.2604C115.387 12.2604 116.279 12.4104 116.996 12.7104C117.712 12.9937 118.279 13.402 118.696 13.9354C119.129 14.452 119.429 15.0854 119.596 15.8354C119.779 16.5687 119.871 17.377 119.871 18.2604V25.6104H116.846V18.7354C116.846 18.0354 116.796 17.4437 116.696 16.9604C116.612 16.4604 116.462 16.0604 116.246 15.7604C116.046 15.4437 115.762 15.2187 115.396 15.0854C115.046 14.9354 114.612 14.8604 114.096 14.8604C113.712 14.8604 113.312 14.8854 112.896 14.9354C112.479 14.9854 112.171 15.027 111.971 15.0604V25.6104H108.946V12.9604ZM125.945 19.0354C125.945 20.3687 126.261 21.4187 126.895 22.1854C127.528 22.9354 128.403 23.3104 129.52 23.3104C130.003 23.3104 130.411 23.2937 130.745 23.2604C131.095 23.2104 131.378 23.1604 131.595 23.1104V15.6104C131.328 15.427 130.97 15.2604 130.52 15.1104C130.086 14.9437 129.62 14.8604 129.12 14.8604C128.02 14.8604 127.211 15.2354 126.695 15.9854C126.195 16.7354 125.945 17.752 125.945 19.0354ZM134.62 25.2104C134.02 25.3937 133.261 25.5604 132.345 25.7104C131.445 25.8604 130.495 25.9354 129.495 25.9354C128.461 25.9354 127.536 25.777 126.72 25.4604C125.903 25.1437 125.203 24.6937 124.62 24.1104C124.053 23.5104 123.611 22.7937 123.295 21.9604C122.995 21.1104 122.845 20.1604 122.845 19.1104C122.845 18.077 122.97 17.1437 123.22 16.3104C123.486 15.4604 123.87 14.7354 124.37 14.1354C124.87 13.5354 125.478 13.077 126.195 12.7604C126.911 12.427 127.736 12.2604 128.67 12.2604C129.303 12.2604 129.861 12.3354 130.345 12.4854C130.828 12.6354 131.245 12.802 131.595 12.9854V6.71035L134.62 6.21035V25.2104ZM149.137 12.5354C147.787 17.502 146.22 22.002 144.437 26.0354C144.104 26.7854 143.762 27.427 143.412 27.9604C143.062 28.4937 142.67 28.9354 142.237 29.2854C141.804 29.6354 141.32 29.8854 140.787 30.0354C140.254 30.202 139.637 30.2854 138.937 30.2854C138.47 30.2854 138.004 30.2354 137.537 30.1354C137.087 30.0354 136.745 29.927 136.512 29.8104L137.062 27.3854C137.662 27.6187 138.254 27.7354 138.837 27.7354C139.62 27.7354 140.229 27.5437 140.662 27.1604C141.112 26.7937 141.504 26.2187 141.837 25.4354C140.887 23.602 139.97 21.602 139.087 19.4354C138.22 17.2687 137.445 14.9687 136.762 12.5354H139.987C140.154 13.2354 140.354 13.9937 140.587 14.8104C140.837 15.627 141.104 16.4604 141.387 17.3104C141.67 18.1437 141.97 18.977 142.287 19.8104C142.604 20.6437 142.92 21.4187 143.237 22.1354C143.77 20.652 144.27 19.077 144.737 17.4104C145.204 15.727 145.629 14.102 146.012 12.5354H149.137Z" fill="white"/>
</svg>
