<svg width="1898" height="1229" viewBox="0 0 1898 1229" fill="none" xmlns="http://www.w3.org/2000/svg">
<g filter="url(#filter0_d_1_2)">
<g opacity="0.3" clip-path="url(#clip0_1_2)">
<path d="M237.605 569.864C239.262 569.864 240.605 568.521 240.605 566.864C240.605 565.207 239.262 563.864 237.605 563.864C235.948 563.864 234.605 565.207 234.605 566.864C234.605 568.521 235.948 569.864 237.605 569.864Z" fill="#B7BBC4"/>
<path d="M261.605 569.364C262.986 569.364 264.105 568.245 264.105 566.864C264.105 565.484 262.986 564.364 261.605 564.364C260.224 564.364 259.105 565.484 259.105 566.864C259.105 568.245 260.224 569.364 261.605 569.364Z" stroke="#B7BBC4"/>
<path d="M285.605 569.864C287.262 569.864 288.605 568.521 288.605 566.864C288.605 565.207 287.262 563.864 285.605 563.864C283.948 563.864 282.605 565.207 282.605 566.864C282.605 568.521 283.948 569.864 285.605 569.864Z" fill="#B7BBC4"/>
<path d="M309.605 569.364C310.986 569.364 312.105 568.245 312.105 566.864C312.105 565.484 310.986 564.364 309.605 564.364C308.224 564.364 307.105 565.484 307.105 566.864C307.105 568.245 308.224 569.364 309.605 569.364Z" stroke="#B7BBC4"/>
<path d="M333.605 569.864C335.262 569.864 336.605 568.521 336.605 566.864C336.605 565.207 335.262 563.864 333.605 563.864C331.948 563.864 330.605 565.207 330.605 566.864C330.605 568.521 331.948 569.864 333.605 569.864Z" fill="#B7BBC4"/>
<path d="M357.605 569.364C358.986 569.364 360.105 568.245 360.105 566.864C360.105 565.484 358.986 564.364 357.605 564.364C356.224 564.364 355.105 565.484 355.105 566.864C355.105 568.245 356.224 569.364 357.605 569.364Z" stroke="#B7BBC4"/>
<path d="M381.605 569.864C383.262 569.864 384.605 568.521 384.605 566.864C384.605 565.207 383.262 563.864 381.605 563.864C379.948 563.864 378.605 565.207 378.605 566.864C378.605 568.521 379.948 569.864 381.605 569.864Z" fill="#B7BBC4"/>
<path d="M237.605 595.864C239.262 595.864 240.605 594.521 240.605 592.864C240.605 591.207 239.262 589.864 237.605 589.864C235.948 589.864 234.605 591.207 234.605 592.864C234.605 594.521 235.948 595.864 237.605 595.864Z" fill="#B7BBC4"/>
<path d="M261.605 595.364C262.986 595.364 264.105 594.245 264.105 592.864C264.105 591.484 262.986 590.364 261.605 590.364C260.224 590.364 259.105 591.484 259.105 592.864C259.105 594.245 260.224 595.364 261.605 595.364Z" stroke="#B7BBC4"/>
<path d="M285.605 595.864C287.262 595.864 288.605 594.521 288.605 592.864C288.605 591.207 287.262 589.864 285.605 589.864C283.948 589.864 282.605 591.207 282.605 592.864C282.605 594.521 283.948 595.864 285.605 595.864Z" fill="#B7BBC4"/>
<path d="M309.605 595.364C310.986 595.364 312.105 594.245 312.105 592.864C312.105 591.484 310.986 590.364 309.605 590.364C308.224 590.364 307.105 591.484 307.105 592.864C307.105 594.245 308.224 595.364 309.605 595.364Z" stroke="#B7BBC4"/>
<path d="M333.605 595.864C335.262 595.864 336.605 594.521 336.605 592.864C336.605 591.207 335.262 589.864 333.605 589.864C331.948 589.864 330.605 591.207 330.605 592.864C330.605 594.521 331.948 595.864 333.605 595.864Z" fill="#B7BBC4"/>
<path d="M357.605 595.364C358.986 595.364 360.105 594.245 360.105 592.864C360.105 591.484 358.986 590.364 357.605 590.364C356.224 590.364 355.105 591.484 355.105 592.864C355.105 594.245 356.224 595.364 357.605 595.364Z" stroke="#B7BBC4"/>
<path d="M381.605 595.864C383.262 595.864 384.605 594.521 384.605 592.864C384.605 591.207 383.262 589.864 381.605 589.864C379.948 589.864 378.605 591.207 378.605 592.864C378.605 594.521 379.948 595.864 381.605 595.864Z" fill="#B7BBC4"/>
<path d="M237.605 621.864C239.262 621.864 240.605 620.521 240.605 618.864C240.605 617.207 239.262 615.864 237.605 615.864C235.948 615.864 234.605 617.207 234.605 618.864C234.605 620.521 235.948 621.864 237.605 621.864Z" fill="#B7BBC4"/>
<path d="M261.605 621.364C262.986 621.364 264.105 620.245 264.105 618.864C264.105 617.484 262.986 616.364 261.605 616.364C260.224 616.364 259.105 617.484 259.105 618.864C259.105 620.245 260.224 621.364 261.605 621.364Z" stroke="#B7BBC4"/>
<path d="M285.605 621.864C287.262 621.864 288.605 620.521 288.605 618.864C288.605 617.207 287.262 615.864 285.605 615.864C283.948 615.864 282.605 617.207 282.605 618.864C282.605 620.521 283.948 621.864 285.605 621.864Z" fill="#B7BBC4"/>
<path d="M309.605 621.364C310.986 621.364 312.105 620.245 312.105 618.864C312.105 617.484 310.986 616.364 309.605 616.364C308.224 616.364 307.105 617.484 307.105 618.864C307.105 620.245 308.224 621.364 309.605 621.364Z" stroke="#B7BBC4"/>
<path d="M333.605 621.864C335.262 621.864 336.605 620.521 336.605 618.864C336.605 617.207 335.262 615.864 333.605 615.864C331.948 615.864 330.605 617.207 330.605 618.864C330.605 620.521 331.948 621.864 333.605 621.864Z" fill="#B7BBC4"/>
<path d="M357.605 621.364C358.986 621.364 360.105 620.245 360.105 618.864C360.105 617.484 358.986 616.364 357.605 616.364C356.224 616.364 355.105 617.484 355.105 618.864C355.105 620.245 356.224 621.364 357.605 621.364Z" stroke="#B7BBC4"/>
<path d="M381.605 621.864C383.262 621.864 384.605 620.521 384.605 618.864C384.605 617.207 383.262 615.864 381.605 615.864C379.948 615.864 378.605 617.207 378.605 618.864C378.605 620.521 379.948 621.864 381.605 621.864Z" fill="#B7BBC4"/>
<path d="M237.605 647.864C239.262 647.864 240.605 646.521 240.605 644.864C240.605 643.207 239.262 641.864 237.605 641.864C235.948 641.864 234.605 643.207 234.605 644.864C234.605 646.521 235.948 647.864 237.605 647.864Z" fill="#B7BBC4"/>
<path d="M261.605 647.364C262.986 647.364 264.105 646.245 264.105 644.864C264.105 643.484 262.986 642.364 261.605 642.364C260.224 642.364 259.105 643.484 259.105 644.864C259.105 646.245 260.224 647.364 261.605 647.364Z" stroke="#B7BBC4"/>
<path d="M285.605 647.864C287.262 647.864 288.605 646.521 288.605 644.864C288.605 643.207 287.262 641.864 285.605 641.864C283.948 641.864 282.605 643.207 282.605 644.864C282.605 646.521 283.948 647.864 285.605 647.864Z" fill="#B7BBC4"/>
<path d="M309.605 647.364C310.986 647.364 312.105 646.245 312.105 644.864C312.105 643.484 310.986 642.364 309.605 642.364C308.224 642.364 307.105 643.484 307.105 644.864C307.105 646.245 308.224 647.364 309.605 647.364Z" stroke="#B7BBC4"/>
<path d="M333.605 647.864C335.262 647.864 336.605 646.521 336.605 644.864C336.605 643.207 335.262 641.864 333.605 641.864C331.948 641.864 330.605 643.207 330.605 644.864C330.605 646.521 331.948 647.864 333.605 647.864Z" fill="#B7BBC4"/>
<path d="M357.605 647.364C358.986 647.364 360.105 646.245 360.105 644.864C360.105 643.484 358.986 642.364 357.605 642.364C356.224 642.364 355.105 643.484 355.105 644.864C355.105 646.245 356.224 647.364 357.605 647.364Z" stroke="#B7BBC4"/>
<path d="M381.605 647.864C383.262 647.864 384.605 646.521 384.605 644.864C384.605 643.207 383.262 641.864 381.605 641.864C379.948 641.864 378.605 643.207 378.605 644.864C378.605 646.521 379.948 647.864 381.605 647.864Z" fill="#B7BBC4"/>
<path d="M237.605 673.864C239.262 673.864 240.605 672.521 240.605 670.864C240.605 669.207 239.262 667.864 237.605 667.864C235.948 667.864 234.605 669.207 234.605 670.864C234.605 672.521 235.948 673.864 237.605 673.864Z" fill="#B7BBC4"/>
<path d="M261.605 673.364C262.986 673.364 264.105 672.245 264.105 670.864C264.105 669.484 262.986 668.364 261.605 668.364C260.224 668.364 259.105 669.484 259.105 670.864C259.105 672.245 260.224 673.364 261.605 673.364Z" stroke="#B7BBC4"/>
<path d="M285.605 673.864C287.262 673.864 288.605 672.521 288.605 670.864C288.605 669.207 287.262 667.864 285.605 667.864C283.948 667.864 282.605 669.207 282.605 670.864C282.605 672.521 283.948 673.864 285.605 673.864Z" fill="#B7BBC4"/>
<path d="M309.605 673.364C310.986 673.364 312.105 672.245 312.105 670.864C312.105 669.484 310.986 668.364 309.605 668.364C308.224 668.364 307.105 669.484 307.105 670.864C307.105 672.245 308.224 673.364 309.605 673.364Z" stroke="#B7BBC4"/>
<path d="M333.605 673.864C335.262 673.864 336.605 672.521 336.605 670.864C336.605 669.207 335.262 667.864 333.605 667.864C331.948 667.864 330.605 669.207 330.605 670.864C330.605 672.521 331.948 673.864 333.605 673.864Z" fill="#B7BBC4"/>
<path d="M357.605 673.364C358.986 673.364 360.105 672.245 360.105 670.864C360.105 669.484 358.986 668.364 357.605 668.364C356.224 668.364 355.105 669.484 355.105 670.864C355.105 672.245 356.224 673.364 357.605 673.364Z" stroke="#B7BBC4"/>
<path d="M381.605 673.864C383.262 673.864 384.605 672.521 384.605 670.864C384.605 669.207 383.262 667.864 381.605 667.864C379.948 667.864 378.605 669.207 378.605 670.864C378.605 672.521 379.948 673.864 381.605 673.864Z" fill="#B7BBC4"/>
<path d="M237.605 699.864C239.262 699.864 240.605 698.521 240.605 696.864C240.605 695.207 239.262 693.864 237.605 693.864C235.948 693.864 234.605 695.207 234.605 696.864C234.605 698.521 235.948 699.864 237.605 699.864Z" fill="#B7BBC4"/>
<path d="M261.605 699.364C262.986 699.364 264.105 698.245 264.105 696.864C264.105 695.484 262.986 694.364 261.605 694.364C260.224 694.364 259.105 695.484 259.105 696.864C259.105 698.245 260.224 699.364 261.605 699.364Z" stroke="#B7BBC4"/>
<path d="M285.605 699.864C287.262 699.864 288.605 698.521 288.605 696.864C288.605 695.207 287.262 693.864 285.605 693.864C283.948 693.864 282.605 695.207 282.605 696.864C282.605 698.521 283.948 699.864 285.605 699.864Z" fill="#B7BBC4"/>
<path d="M309.605 699.364C310.986 699.364 312.105 698.245 312.105 696.864C312.105 695.484 310.986 694.364 309.605 694.364C308.224 694.364 307.105 695.484 307.105 696.864C307.105 698.245 308.224 699.364 309.605 699.364Z" stroke="#B7BBC4"/>
<path d="M333.605 699.864C335.262 699.864 336.605 698.521 336.605 696.864C336.605 695.207 335.262 693.864 333.605 693.864C331.948 693.864 330.605 695.207 330.605 696.864C330.605 698.521 331.948 699.864 333.605 699.864Z" fill="#B7BBC4"/>
<path d="M357.605 699.364C358.986 699.364 360.105 698.245 360.105 696.864C360.105 695.484 358.986 694.364 357.605 694.364C356.224 694.364 355.105 695.484 355.105 696.864C355.105 698.245 356.224 699.364 357.605 699.364Z" stroke="#B7BBC4"/>
<path d="M381.605 699.864C383.262 699.864 384.605 698.521 384.605 696.864C384.605 695.207 383.262 693.864 381.605 693.864C379.948 693.864 378.605 695.207 378.605 696.864C378.605 698.521 379.948 699.864 381.605 699.864Z" fill="#B7BBC4"/>
<path d="M237.605 725.864C239.262 725.864 240.605 724.521 240.605 722.864C240.605 721.207 239.262 719.864 237.605 719.864C235.948 719.864 234.605 721.207 234.605 722.864C234.605 724.521 235.948 725.864 237.605 725.864Z" fill="#B7BBC4"/>
<path d="M261.605 725.364C262.986 725.364 264.105 724.245 264.105 722.864C264.105 721.484 262.986 720.364 261.605 720.364C260.224 720.364 259.105 721.484 259.105 722.864C259.105 724.245 260.224 725.364 261.605 725.364Z" stroke="#B7BBC4"/>
<path d="M285.605 725.864C287.262 725.864 288.605 724.521 288.605 722.864C288.605 721.207 287.262 719.864 285.605 719.864C283.948 719.864 282.605 721.207 282.605 722.864C282.605 724.521 283.948 725.864 285.605 725.864Z" fill="#B7BBC4"/>
<path d="M309.605 725.364C310.986 725.364 312.105 724.245 312.105 722.864C312.105 721.484 310.986 720.364 309.605 720.364C308.224 720.364 307.105 721.484 307.105 722.864C307.105 724.245 308.224 725.364 309.605 725.364Z" stroke="#B7BBC4"/>
<path d="M333.605 725.864C335.262 725.864 336.605 724.521 336.605 722.864C336.605 721.207 335.262 719.864 333.605 719.864C331.948 719.864 330.605 721.207 330.605 722.864C330.605 724.521 331.948 725.864 333.605 725.864Z" fill="#B7BBC4"/>
<path d="M357.605 725.364C358.986 725.364 360.105 724.245 360.105 722.864C360.105 721.484 358.986 720.364 357.605 720.364C356.224 720.364 355.105 721.484 355.105 722.864C355.105 724.245 356.224 725.364 357.605 725.364Z" stroke="#B7BBC4"/>
<path d="M381.605 725.864C383.262 725.864 384.605 724.521 384.605 722.864C384.605 721.207 383.262 719.864 381.605 719.864C379.948 719.864 378.605 721.207 378.605 722.864C378.605 724.521 379.948 725.864 381.605 725.864Z" fill="#B7BBC4"/>
</g>
<g opacity="0.3" clip-path="url(#clip1_1_2)">
<path d="M1498.6 1059.86C1500.26 1059.86 1501.6 1058.52 1501.6 1056.86C1501.6 1055.21 1500.26 1053.86 1498.6 1053.86C1496.95 1053.86 1495.6 1055.21 1495.6 1056.86C1495.6 1058.52 1496.95 1059.86 1498.6 1059.86Z" fill="#B7BBC4"/>
<path d="M1522.6 1059.36C1523.99 1059.36 1525.1 1058.24 1525.1 1056.86C1525.1 1055.48 1523.99 1054.36 1522.6 1054.36C1521.22 1054.36 1520.1 1055.48 1520.1 1056.86C1520.1 1058.24 1521.22 1059.36 1522.6 1059.36Z" stroke="#B7BBC4"/>
<path d="M1546.6 1059.86C1548.26 1059.86 1549.6 1058.52 1549.6 1056.86C1549.6 1055.21 1548.26 1053.86 1546.6 1053.86C1544.95 1053.86 1543.6 1055.21 1543.6 1056.86C1543.6 1058.52 1544.95 1059.86 1546.6 1059.86Z" fill="#B7BBC4"/>
<path d="M1570.6 1059.36C1571.99 1059.36 1573.1 1058.24 1573.1 1056.86C1573.1 1055.48 1571.99 1054.36 1570.6 1054.36C1569.22 1054.36 1568.1 1055.48 1568.1 1056.86C1568.1 1058.24 1569.22 1059.36 1570.6 1059.36Z" stroke="#B7BBC4"/>
<path d="M1594.6 1059.86C1596.26 1059.86 1597.6 1058.52 1597.6 1056.86C1597.6 1055.21 1596.26 1053.86 1594.6 1053.86C1592.95 1053.86 1591.6 1055.21 1591.6 1056.86C1591.6 1058.52 1592.95 1059.86 1594.6 1059.86Z" fill="#B7BBC4"/>
<path d="M1618.6 1059.36C1619.99 1059.36 1621.1 1058.24 1621.1 1056.86C1621.1 1055.48 1619.99 1054.36 1618.6 1054.36C1617.22 1054.36 1616.1 1055.48 1616.1 1056.86C1616.1 1058.24 1617.22 1059.36 1618.6 1059.36Z" stroke="#B7BBC4"/>
<path d="M1642.6 1059.86C1644.26 1059.86 1645.6 1058.52 1645.6 1056.86C1645.6 1055.21 1644.26 1053.86 1642.6 1053.86C1640.95 1053.86 1639.6 1055.21 1639.6 1056.86C1639.6 1058.52 1640.95 1059.86 1642.6 1059.86Z" fill="#B7BBC4"/>
<path d="M1498.6 1085.86C1500.26 1085.86 1501.6 1084.52 1501.6 1082.86C1501.6 1081.21 1500.26 1079.86 1498.6 1079.86C1496.95 1079.86 1495.6 1081.21 1495.6 1082.86C1495.6 1084.52 1496.95 1085.86 1498.6 1085.86Z" fill="#B7BBC4"/>
<path d="M1522.6 1085.36C1523.99 1085.36 1525.1 1084.24 1525.1 1082.86C1525.1 1081.48 1523.99 1080.36 1522.6 1080.36C1521.22 1080.36 1520.1 1081.48 1520.1 1082.86C1520.1 1084.24 1521.22 1085.36 1522.6 1085.36Z" stroke="#B7BBC4"/>
<path d="M1546.6 1085.86C1548.26 1085.86 1549.6 1084.52 1549.6 1082.86C1549.6 1081.21 1548.26 1079.86 1546.6 1079.86C1544.95 1079.86 1543.6 1081.21 1543.6 1082.86C1543.6 1084.52 1544.95 1085.86 1546.6 1085.86Z" fill="#B7BBC4"/>
<path d="M1570.6 1085.36C1571.99 1085.36 1573.1 1084.24 1573.1 1082.86C1573.1 1081.48 1571.99 1080.36 1570.6 1080.36C1569.22 1080.36 1568.1 1081.48 1568.1 1082.86C1568.1 1084.24 1569.22 1085.36 1570.6 1085.36Z" stroke="#B7BBC4"/>
<path d="M1594.6 1085.86C1596.26 1085.86 1597.6 1084.52 1597.6 1082.86C1597.6 1081.21 1596.26 1079.86 1594.6 1079.86C1592.95 1079.86 1591.6 1081.21 1591.6 1082.86C1591.6 1084.52 1592.95 1085.86 1594.6 1085.86Z" fill="#B7BBC4"/>
<path d="M1618.6 1085.36C1619.99 1085.36 1621.1 1084.24 1621.1 1082.86C1621.1 1081.48 1619.99 1080.36 1618.6 1080.36C1617.22 1080.36 1616.1 1081.48 1616.1 1082.86C1616.1 1084.24 1617.22 1085.36 1618.6 1085.36Z" stroke="#B7BBC4"/>
<path d="M1642.6 1085.86C1644.26 1085.86 1645.6 1084.52 1645.6 1082.86C1645.6 1081.21 1644.26 1079.86 1642.6 1079.86C1640.95 1079.86 1639.6 1081.21 1639.6 1082.86C1639.6 1084.52 1640.95 1085.86 1642.6 1085.86Z" fill="#B7BBC4"/>
<path d="M1498.6 1111.86C1500.26 1111.86 1501.6 1110.52 1501.6 1108.86C1501.6 1107.21 1500.26 1105.86 1498.6 1105.86C1496.95 1105.86 1495.6 1107.21 1495.6 1108.86C1495.6 1110.52 1496.95 1111.86 1498.6 1111.86Z" fill="#B7BBC4"/>
<path d="M1522.6 1111.36C1523.99 1111.36 1525.1 1110.24 1525.1 1108.86C1525.1 1107.48 1523.99 1106.36 1522.6 1106.36C1521.22 1106.36 1520.1 1107.48 1520.1 1108.86C1520.1 1110.24 1521.22 1111.36 1522.6 1111.36Z" stroke="#B7BBC4"/>
<path d="M1546.6 1111.86C1548.26 1111.86 1549.6 1110.52 1549.6 1108.86C1549.6 1107.21 1548.26 1105.86 1546.6 1105.86C1544.95 1105.86 1543.6 1107.21 1543.6 1108.86C1543.6 1110.52 1544.95 1111.86 1546.6 1111.86Z" fill="#B7BBC4"/>
<path d="M1570.6 1111.36C1571.99 1111.36 1573.1 1110.24 1573.1 1108.86C1573.1 1107.48 1571.99 1106.36 1570.6 1106.36C1569.22 1106.36 1568.1 1107.48 1568.1 1108.86C1568.1 1110.24 1569.22 1111.36 1570.6 1111.36Z" stroke="#B7BBC4"/>
<path d="M1594.6 1111.86C1596.26 1111.86 1597.6 1110.52 1597.6 1108.86C1597.6 1107.21 1596.26 1105.86 1594.6 1105.86C1592.95 1105.86 1591.6 1107.21 1591.6 1108.86C1591.6 1110.52 1592.95 1111.86 1594.6 1111.86Z" fill="#B7BBC4"/>
<path d="M1618.6 1111.36C1619.99 1111.36 1621.1 1110.24 1621.1 1108.86C1621.1 1107.48 1619.99 1106.36 1618.6 1106.36C1617.22 1106.36 1616.1 1107.48 1616.1 1108.86C1616.1 1110.24 1617.22 1111.36 1618.6 1111.36Z" stroke="#B7BBC4"/>
<path d="M1642.6 1111.86C1644.26 1111.86 1645.6 1110.52 1645.6 1108.86C1645.6 1107.21 1644.26 1105.86 1642.6 1105.86C1640.95 1105.86 1639.6 1107.21 1639.6 1108.86C1639.6 1110.52 1640.95 1111.86 1642.6 1111.86Z" fill="#B7BBC4"/>
<path d="M1498.6 1137.86C1500.26 1137.86 1501.6 1136.52 1501.6 1134.86C1501.6 1133.21 1500.26 1131.86 1498.6 1131.86C1496.95 1131.86 1495.6 1133.21 1495.6 1134.86C1495.6 1136.52 1496.95 1137.86 1498.6 1137.86Z" fill="#B7BBC4"/>
<path d="M1522.6 1137.36C1523.99 1137.36 1525.1 1136.24 1525.1 1134.86C1525.1 1133.48 1523.99 1132.36 1522.6 1132.36C1521.22 1132.36 1520.1 1133.48 1520.1 1134.86C1520.1 1136.24 1521.22 1137.36 1522.6 1137.36Z" stroke="#B7BBC4"/>
<path d="M1546.6 1137.86C1548.26 1137.86 1549.6 1136.52 1549.6 1134.86C1549.6 1133.21 1548.26 1131.86 1546.6 1131.86C1544.95 1131.86 1543.6 1133.21 1543.6 1134.86C1543.6 1136.52 1544.95 1137.86 1546.6 1137.86Z" fill="#B7BBC4"/>
<path d="M1570.6 1137.36C1571.99 1137.36 1573.1 1136.24 1573.1 1134.86C1573.1 1133.48 1571.99 1132.36 1570.6 1132.36C1569.22 1132.36 1568.1 1133.48 1568.1 1134.86C1568.1 1136.24 1569.22 1137.36 1570.6 1137.36Z" stroke="#B7BBC4"/>
<path d="M1594.6 1137.86C1596.26 1137.86 1597.6 1136.52 1597.6 1134.86C1597.6 1133.21 1596.26 1131.86 1594.6 1131.86C1592.95 1131.86 1591.6 1133.21 1591.6 1134.86C1591.6 1136.52 1592.95 1137.86 1594.6 1137.86Z" fill="#B7BBC4"/>
<path d="M1618.6 1137.36C1619.99 1137.36 1621.1 1136.24 1621.1 1134.86C1621.1 1133.48 1619.99 1132.36 1618.6 1132.36C1617.22 1132.36 1616.1 1133.48 1616.1 1134.86C1616.1 1136.24 1617.22 1137.36 1618.6 1137.36Z" stroke="#B7BBC4"/>
<path d="M1642.6 1137.86C1644.26 1137.86 1645.6 1136.52 1645.6 1134.86C1645.6 1133.21 1644.26 1131.86 1642.6 1131.86C1640.95 1131.86 1639.6 1133.21 1639.6 1134.86C1639.6 1136.52 1640.95 1137.86 1642.6 1137.86Z" fill="#B7BBC4"/>
<path d="M1498.6 1163.86C1500.26 1163.86 1501.6 1162.52 1501.6 1160.86C1501.6 1159.21 1500.26 1157.86 1498.6 1157.86C1496.95 1157.86 1495.6 1159.21 1495.6 1160.86C1495.6 1162.52 1496.95 1163.86 1498.6 1163.86Z" fill="#B7BBC4"/>
<path d="M1522.6 1163.36C1523.99 1163.36 1525.1 1162.24 1525.1 1160.86C1525.1 1159.48 1523.99 1158.36 1522.6 1158.36C1521.22 1158.36 1520.1 1159.48 1520.1 1160.86C1520.1 1162.24 1521.22 1163.36 1522.6 1163.36Z" stroke="#B7BBC4"/>
<path d="M1546.6 1163.86C1548.26 1163.86 1549.6 1162.52 1549.6 1160.86C1549.6 1159.21 1548.26 1157.86 1546.6 1157.86C1544.95 1157.86 1543.6 1159.21 1543.6 1160.86C1543.6 1162.52 1544.95 1163.86 1546.6 1163.86Z" fill="#B7BBC4"/>
<path d="M1570.6 1163.36C1571.99 1163.36 1573.1 1162.24 1573.1 1160.86C1573.1 1159.48 1571.99 1158.36 1570.6 1158.36C1569.22 1158.36 1568.1 1159.48 1568.1 1160.86C1568.1 1162.24 1569.22 1163.36 1570.6 1163.36Z" stroke="#B7BBC4"/>
<path d="M1594.6 1163.86C1596.26 1163.86 1597.6 1162.52 1597.6 1160.86C1597.6 1159.21 1596.26 1157.86 1594.6 1157.86C1592.95 1157.86 1591.6 1159.21 1591.6 1160.86C1591.6 1162.52 1592.95 1163.86 1594.6 1163.86Z" fill="#B7BBC4"/>
<path d="M1618.6 1163.36C1619.99 1163.36 1621.1 1162.24 1621.1 1160.86C1621.1 1159.48 1619.99 1158.36 1618.6 1158.36C1617.22 1158.36 1616.1 1159.48 1616.1 1160.86C1616.1 1162.24 1617.22 1163.36 1618.6 1163.36Z" stroke="#B7BBC4"/>
<path d="M1642.6 1163.86C1644.26 1163.86 1645.6 1162.52 1645.6 1160.86C1645.6 1159.21 1644.26 1157.86 1642.6 1157.86C1640.95 1157.86 1639.6 1159.21 1639.6 1160.86C1639.6 1162.52 1640.95 1163.86 1642.6 1163.86Z" fill="#B7BBC4"/>
<path d="M1498.6 1189.86C1500.26 1189.86 1501.6 1188.52 1501.6 1186.86C1501.6 1185.21 1500.26 1183.86 1498.6 1183.86C1496.95 1183.86 1495.6 1185.21 1495.6 1186.86C1495.6 1188.52 1496.95 1189.86 1498.6 1189.86Z" fill="#B7BBC4"/>
<path d="M1522.6 1189.36C1523.99 1189.36 1525.1 1188.24 1525.1 1186.86C1525.1 1185.48 1523.99 1184.36 1522.6 1184.36C1521.22 1184.36 1520.1 1185.48 1520.1 1186.86C1520.1 1188.24 1521.22 1189.36 1522.6 1189.36Z" stroke="#B7BBC4"/>
<path d="M1546.6 1189.86C1548.26 1189.86 1549.6 1188.52 1549.6 1186.86C1549.6 1185.21 1548.26 1183.86 1546.6 1183.86C1544.95 1183.86 1543.6 1185.21 1543.6 1186.86C1543.6 1188.52 1544.95 1189.86 1546.6 1189.86Z" fill="#B7BBC4"/>
<path d="M1570.6 1189.36C1571.99 1189.36 1573.1 1188.24 1573.1 1186.86C1573.1 1185.48 1571.99 1184.36 1570.6 1184.36C1569.22 1184.36 1568.1 1185.48 1568.1 1186.86C1568.1 1188.24 1569.22 1189.36 1570.6 1189.36Z" stroke="#B7BBC4"/>
<path d="M1594.6 1189.86C1596.26 1189.86 1597.6 1188.52 1597.6 1186.86C1597.6 1185.21 1596.26 1183.86 1594.6 1183.86C1592.95 1183.86 1591.6 1185.21 1591.6 1186.86C1591.6 1188.52 1592.95 1189.86 1594.6 1189.86Z" fill="#B7BBC4"/>
<path d="M1618.6 1189.36C1619.99 1189.36 1621.1 1188.24 1621.1 1186.86C1621.1 1185.48 1619.99 1184.36 1618.6 1184.36C1617.22 1184.36 1616.1 1185.48 1616.1 1186.86C1616.1 1188.24 1617.22 1189.36 1618.6 1189.36Z" stroke="#B7BBC4"/>
<path d="M1642.6 1189.86C1644.26 1189.86 1645.6 1188.52 1645.6 1186.86C1645.6 1185.21 1644.26 1183.86 1642.6 1183.86C1640.95 1183.86 1639.6 1185.21 1639.6 1186.86C1639.6 1188.52 1640.95 1189.86 1642.6 1189.86Z" fill="#B7BBC4"/>
<path d="M1498.6 1215.86C1500.26 1215.86 1501.6 1214.52 1501.6 1212.86C1501.6 1211.21 1500.26 1209.86 1498.6 1209.86C1496.95 1209.86 1495.6 1211.21 1495.6 1212.86C1495.6 1214.52 1496.95 1215.86 1498.6 1215.86Z" fill="#B7BBC4"/>
<path d="M1522.6 1215.36C1523.99 1215.36 1525.1 1214.24 1525.1 1212.86C1525.1 1211.48 1523.99 1210.36 1522.6 1210.36C1521.22 1210.36 1520.1 1211.48 1520.1 1212.86C1520.1 1214.24 1521.22 1215.36 1522.6 1215.36Z" stroke="#B7BBC4"/>
<path d="M1546.6 1215.86C1548.26 1215.86 1549.6 1214.52 1549.6 1212.86C1549.6 1211.21 1548.26 1209.86 1546.6 1209.86C1544.95 1209.86 1543.6 1211.21 1543.6 1212.86C1543.6 1214.52 1544.95 1215.86 1546.6 1215.86Z" fill="#B7BBC4"/>
<path d="M1570.6 1215.36C1571.99 1215.36 1573.1 1214.24 1573.1 1212.86C1573.1 1211.48 1571.99 1210.36 1570.6 1210.36C1569.22 1210.36 1568.1 1211.48 1568.1 1212.86C1568.1 1214.24 1569.22 1215.36 1570.6 1215.36Z" stroke="#B7BBC4"/>
<path d="M1594.6 1215.86C1596.26 1215.86 1597.6 1214.52 1597.6 1212.86C1597.6 1211.21 1596.26 1209.86 1594.6 1209.86C1592.95 1209.86 1591.6 1211.21 1591.6 1212.86C1591.6 1214.52 1592.95 1215.86 1594.6 1215.86Z" fill="#B7BBC4"/>
<path d="M1618.6 1215.36C1619.99 1215.36 1621.1 1214.24 1621.1 1212.86C1621.1 1211.48 1619.99 1210.36 1618.6 1210.36C1617.22 1210.36 1616.1 1211.48 1616.1 1212.86C1616.1 1214.24 1617.22 1215.36 1618.6 1215.36Z" stroke="#B7BBC4"/>
<path d="M1642.6 1215.86C1644.26 1215.86 1645.6 1214.52 1645.6 1212.86C1645.6 1211.21 1644.26 1209.86 1642.6 1209.86C1640.95 1209.86 1639.6 1211.21 1639.6 1212.86C1639.6 1214.52 1640.95 1215.86 1642.6 1215.86Z" fill="#B7BBC4"/>
</g>
<circle cx="16" cy="117.836" r="8" fill="#FFE073"/>
<circle cx="97.1112" cy="64.3817" r="2.73603" fill="#EE7B11"/>
<circle cx="83.9703" cy="3.57246" r="2.73603" fill="#31FFF3"/>
<circle cx="191.533" cy="94.483" r="1.92193" fill="#165DF5"/>
<circle r="8" transform="matrix(0 -1 -1 0 12 1007.06)" fill="#FFE073"/>
<circle r="2.73603" transform="matrix(0 -1 -1 0 65.4547 925.953)" fill="#EE7B11"/>
<circle r="2.73603" transform="matrix(0 -1 -1 0 126.264 939.094)" fill="#31FFF3"/>
<circle r="1.92193" transform="matrix(0 -1 -1 0 35.3535 831.531)" fill="#165DF5"/>
<circle r="8" transform="matrix(-1 0 0 1 1885.46 527)" fill="#FFE073"/>
<circle r="2.73603" transform="matrix(-1 0 0 1 1865.36 275.279)" fill="#EE7B11"/>
<circle r="2.73603" transform="matrix(-1 0 0 1 1817.48 412.736)" fill="#31FFF3"/>
<circle r="1.92193" transform="matrix(-1 0 0 1 1709.92 503.646)" fill="#165DF5"/>
<circle cx="485.264" cy="315.261" r="8" fill="#FFE073"/>
<circle cx="441.777" cy="332.913" r="2.73603" fill="#EE7B11"/>
<circle cx="493.264" cy="320.525" r="2.73603" fill="#EE7B11"/>
<circle cx="459.704" cy="288.94" r="1.92193" fill="#165DF5"/>
<circle cx="1374.38" cy="277.598" r="2.73603" fill="#EE7B11"/>
<circle cx="1425.87" cy="265.21" r="2.73603" fill="#EE7B11"/>
<circle cx="1392.31" cy="233.626" r="1.92193" fill="#165DF5"/>
<circle cx="1710.45" cy="917.596" r="2.73603" fill="#EE7B11"/>
<circle cx="1761.94" cy="905.208" r="2.73603" fill="#EE7B11"/>
<circle cx="1728.38" cy="873.624" r="1.92193" fill="#165DF5"/>
</g>
<defs>
<filter id="filter0_d_1_2" x="0" y="0.836426" width="1897.46" height="1228.03" filterUnits="userSpaceOnUse" color-interpolation-filters="sRGB">
<feFlood flood-opacity="0" result="BackgroundImageFix"/>
<feColorMatrix in="SourceAlpha" type="matrix" values="0 0 0 0 0 0 0 0 0 0 0 0 0 0 0 0 0 0 127 0" result="hardAlpha"/>
<feOffset dy="4"/>
<feGaussianBlur stdDeviation="2"/>
<feComposite in2="hardAlpha" operator="out"/>
<feColorMatrix type="matrix" values="0 0 0 0 0 0 0 0 0 0 0 0 0 0 0 0 0 0 0.25 0"/>
<feBlend mode="normal" in2="BackgroundImageFix" result="effect1_dropShadow_1_2"/>
<feBlend mode="normal" in="SourceGraphic" in2="effect1_dropShadow_1_2" result="shape"/>
</filter>
<clipPath id="clip0_1_2">
<rect width="155" height="167" fill="white" transform="translate(234.605 563.864)"/>
</clipPath>
<clipPath id="clip1_1_2">
<rect width="155" height="167" fill="white" transform="translate(1495.6 1053.86)"/>
</clipPath>
</defs>
</svg>
