<svg width="1920" height="1087" viewBox="0 0 1920 1087" fill="none" xmlns="http://www.w3.org/2000/svg">
<rect width="1920" height="1087" fill="white"/>
<circle cx="1068.7" cy="564" r="8" fill="#FFE073"/>
<circle cx="1149.81" cy="510.545" r="2.73603" fill="#EE7B11"/>
<circle cx="1136.67" cy="449.736" r="2.73603" fill="#31FFF3"/>
<circle cx="1244.23" cy="540.647" r="1.92193" fill="#165DF5"/>
<circle cx="141.014" cy="734.229" r="8" fill="#FFE073"/>
<circle cx="222.125" cy="680.774" r="2.73603" fill="#EE7B11"/>
<circle cx="208.984" cy="619.965" r="2.73603" fill="#31FFF3"/>
<circle cx="316.547" cy="710.875" r="1.92193" fill="#165DF5"/>
<circle r="8" transform="matrix(-0.0278686 0.999612 0.999612 0.0278686 1895.3 391.705)" fill="#FFE073"/>
<circle r="2.73603" transform="matrix(-0.0278686 0.999612 0.999612 0.0278686 1643.12 404.778)" fill="#EE7B11"/>
<circle r="2.73603" transform="matrix(-0.0278686 0.999612 0.999612 0.0278686 1779.19 456.465)" fill="#31FFF3"/>
<circle r="1.92193" transform="matrix(-0.0278686 0.999612 0.999612 0.0278686 1867.07 566.52)" fill="#165DF5"/>
<circle cx="1207.22" cy="321.769" r="8" fill="#FFE073"/>
<circle cx="1163.74" cy="339.42" r="2.73603" fill="#EE7B11"/>
<circle cx="1215.22" cy="327.032" r="2.73603" fill="#EE7B11"/>
<circle cx="1181.66" cy="295.448" r="1.92193" fill="#165DF5"/>
</svg>
